<?xml version="1.0" encoding="utf-8"?>
<!-- Generator: Adobe Illustrator 25.4.1, SVG Export Plug-In . SVG Version: 6.00 Build 0)  -->
<svg version="1.1" id="Capa_1" xmlns="http://www.w3.org/2000/svg" xmlns:xlink="http://www.w3.org/1999/xlink" x="0px" y="0px"
	 viewBox="0 0 512 512" style="enable-background:new 0 0 512 512;" xml:space="preserve">
<g>
	<g>
		<g>
			<g>
				<path d="M17.2,451.8c-9,0-16.2-7.3-16.2-16.2v-19c0-0.1,0-0.2,0-0.3l0-0.2c0-0.3,0.1-0.6,0.1-0.8c0.1-0.3,0.1-0.5,0.2-0.7l0-0.1
					c0.1-0.2,0.2-0.4,0.3-0.6l0.1-0.1l40.2-79.3V73.7c0-7.5,6.1-13.5,13.5-13.5h401.1c7.5,0,13.5,6.1,13.5,13.5v260.5l40.2,79.3
					c0,0,0,0.1,0,0.1c0.1,0.2,0.2,0.4,0.2,0.6l0.1,0.2c0.1,0.2,0.1,0.4,0.2,0.7c0.1,0.3,0.1,0.6,0.1,0.8l0,0.2c0,0.2,0,0.3,0,0.4v19
					c0,9-7.3,16.2-16.2,16.2H17.2z M14,435.6c0,1.8,1.5,3.2,3.2,3.2h477.5c1.8,0,3.2-1.5,3.2-3.2V423H14V435.6z M198.7,410h114.5
					l-7.5-27.4h-99.4L198.7,410z M305.6,369.7c5.9,0,11.1,4,12.7,9.6l8.5,30.7h167.2l-34.3-67.7H52.4L18.1,410h167.2l8.5-30.7
					c1.6-5.7,6.8-9.6,12.7-9.6H305.6z M54.9,329.3h402.2V73.2H54.9V329.3z"/>
			</g>
		</g>
	</g>
</g>
<g>
	<g>
		<g>
			<g>
				<path d="M83.7,311.3c-5.9,0-10.8-4.8-10.8-10.8v-79.3c0-3.6,2.9-6.5,6.5-6.5s6.5,2.9,6.5,6.5v77.1h340.2v-77.1
					c0-3.6,2.9-6.5,6.5-6.5s6.5,2.9,6.5,6.5v79.3c0,5.9-4.8,10.8-10.8,10.8H83.7z"/>
			</g>
		</g>
	</g>
</g>
<g>
	<g>
		<g>
			<g>
				<path d="M432.6,187.8c-3.6,0-6.5-2.9-6.5-6.5v-77.1H85.9v77.1c0,3.6-2.9,6.5-6.5,6.5s-6.5-2.9-6.5-6.5V102
					c0-5.9,4.8-10.8,10.8-10.8h344.6c5.9,0,10.8,4.8,10.8,10.8v79.3C439.1,184.8,436.2,187.8,432.6,187.8z"/>
			</g>
		</g>
		<g>
			<rect x="72.9" y="167.9" width="13" height="69"/>
		</g>
		<g>
			<rect x="426.1" y="165.4" width="13" height="69.5"/>
		</g>
	</g>
</g>
</svg>
