<?xml version="1.0" encoding="utf-8"?>
<!-- Generator: Adobe Illustrator 25.4.1, SVG Export Plug-In . SVG Version: 6.00 Build 0)  -->
<svg version="1.1" id="Capa_1" xmlns="http://www.w3.org/2000/svg" xmlns:xlink="http://www.w3.org/1999/xlink" x="0px" y="0px"
	 viewBox="0 0 512 512" style="enable-background:new 0 0 512 512;" xml:space="preserve">
<g>
	<g>
		<g>
			<g>
				<path d="M146,511c-20.1,0-36.5-16.4-36.5-36.5v-437C109.5,17.4,125.9,1,146,1h220c20.1,0,36.5,16.4,36.5,36.5v437
					c0,20.1-16.4,36.5-36.5,36.5H146z M122.5,474.5c0,13,10.5,23.5,23.5,23.5h220c13,0,23.5-10.5,23.5-23.5V421H176
					c-3.6,0-6.5-2.9-6.5-6.5s2.9-6.5,6.5-6.5h213.5V74h-267v334H146c3.6,0,6.5,2.9,6.5,6.5s-2.9,6.5-6.5,6.5h-23.5V474.5z M146,14
					c-13,0-23.5,10.5-23.5,23.5V61h267V37.5c0-13-10.5-23.5-23.5-23.5H146z"/>
			</g>
		</g>
		<g>
			<rect x="137.2" y="408" width="50.2" height="13"/>
		</g>
	</g>
</g>
<g>
	<g>
		<g>
			<g>
				<path d="M256,44c-3.6,0-6.5-2.9-6.5-6.5s2.9-6.5,6.5-6.5h30c3.6,0,6.5,2.9,6.5,6.5S289.6,44,286,44H256z"/>
			</g>
		</g>
	</g>
</g>
<g>
	<g>
		<g>
			<g>
				<path d="M256,481c-11.9,0-21.5-9.6-21.5-21.5S244.1,438,256,438c11.9,0,21.5,9.6,21.5,21.5S267.9,481,256,481z M256,451
					c-4.7,0-8.5,3.8-8.5,8.5s3.8,8.5,8.5,8.5c4.7,0,8.5-3.8,8.5-8.5S260.7,451,256,451z"/>
			</g>
		</g>
	</g>
</g>
<g>
	<g>
		<g>
			<g>
				<circle cx="226" cy="37.5" r="6.5"/>
			</g>
		</g>
	</g>
</g>
</svg>
