<svg xmlns="http://www.w3.org/2000/svg" viewBox="0 0 1440 320">
  <path fill="#fff" fill-opacity="1" d="M0,160L21.8,154.7C43.6,149,87,139,131,149.3C174.5,160,218,192,262,224C305.5,256,349,288,393,266.7C436.4,245,480,171,524,154.7C567.3,139,611,181,655,208C698.2,235,742,245,785,213.3C829.1,181,873,107,916,117.3C960,128,1004,224,1047,245.3C1090.9,267,1135,213,1178,176C1221.8,139,1265,117,1309,96C1352.7,75,1396,53,1418,42.7L1440,32L1440,320L1418.2,320C1396.4,320,1353,320,1309,320C1265.5,320,1222,320,1178,320C1134.5,320,1091,320,1047,320C1003.6,320,960,320,916,320C872.7,320,829,320,785,320C741.8,320,698,320,655,320C610.9,320,567,320,524,320C480,320,436,320,393,320C349.1,320,305,320,262,320C218.2,320,175,320,131,320C87.3,320,44,320,22,320L0,320Z"></path>
</svg>