<?xml version="1.0" encoding="utf-8"?>
<!-- Generator: Adobe Illustrator 25.4.1, SVG Export Plug-In . SVG Version: 6.00 Build 0)  -->
<svg version="1.1" id="Layer_1" xmlns="http://www.w3.org/2000/svg" xmlns:xlink="http://www.w3.org/1999/xlink" x="0px" y="0px"
	 viewBox="0 0 512 512" style="enable-background:new 0 0 512 512;" xml:space="preserve">
<g id="_x31_172_x2C__Filtration_x2C__Purifier_x2C__Uv_x2C__Water">
	<g>
		<g>
			<g>
				<path d="M270.8,100.4c-3.8,0-6.8-3.1-6.8-6.8s3.1-6.8,6.8-6.8c3.8,0,6.8,3.1,6.8,6.8S274.5,100.4,270.8,100.4z"/>
			</g>
			<g>
				<path d="M349.5,100.4c-3.8,0-6.8-3.1-6.8-6.8s3.1-6.8,6.8-6.8c3.8,0,6.8,3.1,6.8,6.8S353.3,100.4,349.5,100.4z"/>
			</g>
			<g>
				<path d="M310.2,100.4c-3.8,0-6.8-3.1-6.8-6.8s3.1-6.8,6.8-6.8c3.8,0,6.8,3.1,6.8,6.8S313.9,100.4,310.2,100.4z"/>
			</g>
			<g>
				<path d="M44.3,474.5c-3.8,0-6.8-3.1-6.8-6.8c0-3.8,3.1-6.8,6.8-6.8h111.3V445h-17c-12.3,0-22.4-10-22.4-22.4V59.8
					c0-12.3,10-22.4,22.4-22.4h234.8c12.3,0,22.4,10,22.4,22.4v362.8c0,12.3-10,22.4-22.4,22.4h-17v15.8h111.3
					c3.8,0,6.8,3.1,6.8,6.8c0,3.8-3.1,6.8-6.8,6.8H44.3z M317,460.8h25.7V445H317V460.8z M208.7,460.8h94.6V445h-94.6V460.8z
					 M169.3,460.8H195V445h-25.7V460.8z M129.9,422.6c0,4.8,3.9,8.7,8.7,8.7h234.8c4.8,0,8.7-3.9,8.7-8.7v-36.7H129.9V422.6z
					 M129.9,372.2h252.2v-74.9H129.9V372.2z M323.4,135.9c18.2,0,32.9,14.8,32.9,32.9v114.8h25.7V59.8c0-4.8-3.9-8.7-8.7-8.7H138.6
					c-4.8,0-8.7,3.9-8.7,8.7v223.8h25.7V168.9c0-18.2,14.8-32.9,32.9-32.9H323.4z M188.6,149.6c-10.6,0-19.2,8.6-19.2,19.2v114.8
					h173.4V168.9c0-10.6-8.6-19.2-19.2-19.2H317V192c0,3.8-3.1,6.8-6.8,6.8h-12.8v22.7c0,3.8-3.1,6.8-6.8,6.8
					c-3.8,0-6.8-3.1-6.8-6.8v-22.7h-12.8c-3.8,0-6.8-3.1-6.8-6.8v-42.4h-15.8V192c0,3.8-3.1,6.8-6.8,6.8h-12.8v22.7
					c0,3.8-3.1,6.8-6.8,6.8s-6.8-3.1-6.8-6.8v-22.7h-12.8c-3.8,0-6.8-3.1-6.8-6.8v-42.4H188.6z M277.6,185.2h25.7v-35.5h-25.7V185.2
					z M208.7,185.2h25.7v-35.5h-25.7V185.2z"/>
			</g>
		</g>
	</g>
</g>
</svg>
