<?xml version="1.0" encoding="utf-8"?>
<!-- Generator: Adobe Illustrator 25.4.1, SVG Export Plug-In . SVG Version: 6.00 Build 0)  -->
<svg version="1.1" id="svg63" xmlns:svg="http://www.w3.org/2000/svg"
	 xmlns="http://www.w3.org/2000/svg" xmlns:xlink="http://www.w3.org/1999/xlink" x="0px" y="0px" viewBox="0 0 682.7 682.7"
	 style="enable-background:new 0 0 682.7 682.7;" xml:space="preserve">
<style type="text/css">
	.st0{fill:none;stroke:#000000;stroke-width:20;stroke-linecap:round;stroke-linejoin:round;stroke-miterlimit:13.3333;}
</style>
<g id="g69" transform="matrix(1.3333333,0,0,-1.3333333,0,682.66667)">
	<g>
		<g id="g71_00000168108885503024673740000013354874413442138279_">
			<g>
				<g id="g73_00000087412389648707214540000008970906044396737211_">
					<g id="g79_00000013898587789079271340000005207717314198887576_" transform="translate(67.5713,411.7446)">
						<g id="path81_00000124859569181353062330000006546771201857520293_">
							<path class="st0" d="M36.4-403.5c-19.7,0-35.6,16-35.6,35.6V56.4c0,19.7,16,35.6,35.6,35.6h304.1c19.7,0,35.6-16,35.6-35.6
								v-424.3c0-19.7-16-35.6-35.6-35.6H36.4z"/>
						</g>
					</g>
					<g id="g83_00000173147922990205220730000015578890895899186871_" transform="translate(97.4346,167.2275)">
						<g id="path85_00000079460770870952887800000004441558051226124928_">
							<polygon class="st0" points="0.7,0 -0.8,0 -0.8,283.4 -0.8,284.1 0,284.1 317.1,284.1 317.9,284.1 317.9,283.4 317.9,173 
								317.9,143 316.4,143 316.4,173 316.4,282.6 0.7,282.6 							"/>
						</g>
					</g>
					<g id="g87_00000109722737910522836310000010539719000667543178_" transform="translate(414.5649,310.252)">
						<g id="path89_00000016054533489853435760000006250075044717775020_">
							<polygon class="st0" points="0.7,-231 0,-231 -317.1,-231 -317.9,-231 -317.9,-230.2 -317.9,-173 -317.9,-143 -316.4,-143 
								-316.4,-173 -316.4,-229.5 -0.8,-229.5 -0.8,0 0.7,0 0.7,-230.2 							"/>
						</g>
					</g>
					<g id="g91_00000114788744535913615600000016767293517141950611_" transform="translate(271.3481,45.5151)">
						<g id="path93_00000034091128303299684790000010148391475467126678_">
							<path class="st0" d="M-15.3-14.6c-8,0-14.6,6.5-14.6,14.6c0,8.1,6.5,14.6,14.6,14.6C-7.3,14.6-0.7,8-0.7,0
								C-0.7-8-7.3-14.6-15.3-14.6z"/>
						</g>
					</g>
					<g id="g95_00000003081141773623564760000011832873569778164904_" transform="translate(254.2207,477.7271)">
						<g id="path97_00000024713194153345248040000015890582776867959193_">
							<rect x="-5.7" y="-1" class="st0" width="45.6" height="2"/>
						</g>
					</g>
					<g id="g99_00000135685494917040353200000011673988348138968230_" transform="translate(225.583,477.7271)">
						<g id="path101_00000137822528143923290620000013428183924731667589_">
							<line class="st0" x1="0" y1="0" x2="0" y2="0"/>
						</g>
					</g>
				</g>
			</g>
		</g>
	</g>
</g>
</svg>
