<?xml version="1.0" encoding="utf-8"?>
<!-- Generator: Adobe Illustrator 25.4.1, SVG Export Plug-In . SVG Version: 6.00 Build 0)  -->
<svg version="1.1" id="Capa_1" xmlns="http://www.w3.org/2000/svg" xmlns:xlink="http://www.w3.org/1999/xlink" x="0px" y="0px"
	 viewBox="0 0 512 512" style="enable-background:new 0 0 512 512;" xml:space="preserve">
<g>
	<g>
		<g>
			<g>
				<path d="M7.5,422.8c-3.6,0-6.5-2.9-6.5-6.5V95.7c0-3.6,2.9-6.5,6.5-6.5h497c3.6,0,6.5,2.9,6.5,6.5v320.6c0,3.6-2.9,6.5-6.5,6.5
					H7.5z M398.8,409.8H498V102.2h-99.2V409.8z M14,409.8h371.7V102.2H14V409.8z"/>
			</g>
		</g>
	</g>
</g>
<g>
	<g>
		<g>
			<g>
				<path d="M47.6,358.7c-3.6,0-6.5-2.9-6.5-6.5V159.8c0-3.6,2.9-6.5,6.5-6.5h228.9c3.6,0,6.5,2.9,6.5,6.5s-2.9,6.5-6.5,6.5H54.1
					v179.3h291.6V166.3h-33.1c-3.6,0-6.5-2.9-6.5-6.5s2.9-6.5,6.5-6.5h39.6c3.6,0,6.5,2.9,6.5,6.5v192.4c0,3.6-2.9,6.5-6.5,6.5H47.6
					z"/>
			</g>
		</g>
		<g>
			<rect x="266.1" y="153.3" width="57.3" height="13"/>
		</g>
	</g>
</g>
<g>
	<g>
		<g>
			<g>
				<path d="M448.4,358.7c-16.9,0-30.6-13.7-30.6-30.6c0-16.9,13.7-30.6,30.6-30.6s30.6,13.7,30.6,30.6
					C478.9,345,465.2,358.7,448.4,358.7z M441.4,344.3l1.6,0.5c1.8,0.6,3.6,0.9,5.4,0.9c9.7,0,17.5-7.9,17.5-17.5
					c0-1.8-0.3-3.6-0.9-5.4l-0.5-1.6L441.4,344.3z M448.4,310.6c-9.7,0-17.5,7.9-17.5,17.5c0,1.8,0.3,3.6,0.9,5.4l0.5,1.6l23.1-23.1
					l-1.6-0.5C452,310.9,450.2,310.6,448.4,310.6z"/>
			</g>
		</g>
	</g>
</g>
<g>
	<g>
		<g>
			<g>
				<path d="M448.4,286.6c-16.9,0-30.6-13.7-30.6-30.6c0-16.9,13.7-30.6,30.6-30.6c16.9,0,30.6,13.7,30.6,30.6
					C478.9,272.9,465.2,286.6,448.4,286.6z M441.4,272.2l1.6,0.5c1.8,0.6,3.6,0.9,5.4,0.9c9.7,0,17.5-7.9,17.5-17.5
					c0-1.8-0.3-3.6-0.9-5.4l-0.5-1.6L441.4,272.2z M448.4,238.5c-9.7,0-17.5,7.9-17.5,17.5c0,1.8,0.3,3.6,0.9,5.4l0.5,1.6l23.1-23.1
					l-1.6-0.5C452,238.8,450.2,238.5,448.4,238.5z"/>
			</g>
		</g>
	</g>
</g>
<g>
	<g>
		<g>
			<g>
				<path d="M432.3,166.3c-3.6,0-6.5-2.9-6.5-6.5s2.9-6.5,6.5-6.5c3.6,0,6.5,2.9,6.5,6.5S435.9,166.3,432.3,166.3z"/>
			</g>
		</g>
	</g>
</g>
<g>
	<g>
		<g>
			<g>
				<path d="M464.9,166.3c-3.6,0-6.5-2.9-6.5-6.5s2.9-6.5,6.5-6.5c3.6,0,6.5,2.9,6.5,6.5S468.5,166.3,464.9,166.3z"/>
			</g>
		</g>
	</g>
</g>
<g>
	<g>
		<g>
			<g>
				<path d="M432.3,190.4c-3.6,0-6.5-2.9-6.5-6.5s2.9-6.5,6.5-6.5c3.6,0,6.5,2.9,6.5,6.5S435.9,190.4,432.3,190.4z"/>
			</g>
		</g>
	</g>
</g>
<g>
	<g>
		<g>
			<g>
				<path d="M464.9,190.4c-3.6,0-6.5-2.9-6.5-6.5s2.9-6.5,6.5-6.5c3.6,0,6.5,2.9,6.5,6.5S468.5,190.4,464.9,190.4z"/>
			</g>
		</g>
	</g>
</g>
<g>
	<g>
		<g>
			<g>
				<path d="M432.3,214.4c-3.6,0-6.5-2.9-6.5-6.5s2.9-6.5,6.5-6.5c3.6,0,6.5,2.9,6.5,6.5S435.9,214.4,432.3,214.4z"/>
			</g>
		</g>
	</g>
</g>
<g>
	<g>
		<g>
			<g>
				<path d="M464.9,214.4c-3.6,0-6.5-2.9-6.5-6.5s2.9-6.5,6.5-6.5c3.6,0,6.5,2.9,6.5,6.5S468.5,214.4,464.9,214.4z"/>
			</g>
		</g>
	</g>
</g>
<g>
	<g>
		<g>
			<g>
				<path d="M219.9,299.6c1.9,0,3.8-0.7,5.3-2.2L219.9,299.6z"/>
			</g>
		</g>
	</g>
</g>
</svg>
