<?xml version="1.0" encoding="utf-8"?>
<!-- Generator: Adobe Illustrator 25.4.1, SVG Export Plug-In . SVG Version: 6.00 Build 0)  -->
<svg version="1.1" id="Capa_1" xmlns="http://www.w3.org/2000/svg" xmlns:xlink="http://www.w3.org/1999/xlink" x="0px" y="0px"
	 viewBox="0 0 512 512" style="enable-background:new 0 0 512 512;" xml:space="preserve">
<g>
	<g>
		<g>
			<g>
				<path d="M388.8,162.1c-3.6,0-6.6-3-6.6-6.6V14.9H129.8v140.6c0,3.6-3,6.6-6.6,6.6s-6.6-3-6.6-6.6V8.3c0-3.6,3-6.6,6.6-6.6h265.6
					c3.6,0,6.6,3,6.6,6.6v147.2C395.4,159.1,392.5,162.1,388.8,162.1z"/>
			</g>
		</g>
		<g>
			<rect x="382.2" y="145.7" width="13.2" height="32.5"/>
		</g>
		<g>
			<rect x="116.6" y="140" width="13.8" height="37.2"/>
		</g>
	</g>
</g>
<g>
	<g>
		<g>
			<g>
				<path d="M114.1,510.3c-1.9,0-3.7-0.8-4.9-2.2c-1.3-1.4-1.9-3.3-1.7-5.1l1.9-18c0.4-3.4,3.2-5.9,6.6-5.9c0.2,0,0.5,0,0.7,0
					c1.8,0.2,3.3,1,4.4,2.4s1.6,3.1,1.4,4.8l-1.2,10.7h269.2l-16.9-157.8H138.3l-13,121.6c-0.4,3.4-3.2,5.9-6.5,5.9
					c-0.2,0-0.5,0-0.7,0c-3.6-0.4-6.2-3.6-5.9-7.3L125,339.3h-11.4c-3.6,0-6.6-3-6.6-6.6s3-6.6,6.6-6.6h284.8c3.6,0,6.6,3,6.6,6.6
					s-3,6.6-6.6,6.6H387L404.5,503c0.2,1.9-0.4,3.7-1.7,5.1c-1.2,1.4-3,2.2-4.9,2.2H114.1z"/>
			</g>
		</g>
		<g>
			<polygon points="109.1,487.8 113.4,447.6 126.7,447.6 122.4,487.8 			"/>
		</g>
	</g>
</g>
<g>
	<g>
		<g>
			<g>
				<path d="M49.5,439.2C22.8,439.2,1,417.5,1,390.7V221.2c0-26.8,21.8-48.5,48.5-48.5h371.7c3.6,0,6.6,3,6.6,6.6s-3,6.6-6.6,6.6
					H49.5c-19.5,0-35.3,15.8-35.3,35.3v169.5c0,19.5,15.8,35.3,35.3,35.3h46.8c3.6,0,6.6,3,6.6,6.6s-3,6.6-6.6,6.6H49.5z"/>
			</g>
		</g>
		<g>
			<rect x="400.8" y="172.7" width="58.3" height="13.2"/>
		</g>
	</g>
</g>
<g>
	<g>
		<g>
			<g>
				<path d="M415.7,439.2c-3.6,0-6.6-3-6.6-6.6s3-6.6,6.6-6.6h46.8c19.5,0,35.3-15.8,35.3-35.3V221.2c0-19.5-15.9-35.3-35.3-35.3
					h-15.8c-3.6,0-6.6-3-6.6-6.6s3-6.6,6.6-6.6h15.8c26.8,0,48.5,21.8,48.5,48.5v169.5c0,26.8-21.8,48.5-48.5,48.5H415.7z"/>
			</g>
		</g>
	</g>
</g>
<g>
	<g>
		<g>
			<g>
				<path d="M409.8,384.6c-3.6,0-6.6-3-6.6-6.6s3-6.6,6.6-6.6h5.9v-67.9H96.3v67.9h5.9c3.6,0,6.6,3,6.6,6.6s-3,6.6-6.6,6.6H89.7
					c-3.6,0-6.6-3-6.6-6.6v-81.1c0-3.6,3-6.6,6.6-6.6h332.5c3.6,0,6.6,3,6.6,6.6V378c0,3.6-3,6.6-6.6,6.6H409.8z"/>
			</g>
		</g>
	</g>
</g>
<g>
	<g>
		<g>
			<g>
				<path d="M65.4,270c-18.2,0-33-14.8-33-33c0-18.2,14.8-33,33-33s33,14.8,33,33C98.4,255.2,83.6,270,65.4,270z M65.4,217.3
					c-10.9,0-19.8,8.9-19.8,19.8s8.9,19.8,19.8,19.8s19.8-8.9,19.8-19.8S76.3,217.3,65.4,217.3z"/>
			</g>
		</g>
	</g>
</g>
<g>
	<g>
		<g>
			<g>
				<path d="M144.5,270c-18.2,0-33-14.8-33-33c0-18.2,14.8-33,33-33c8.8,0,17.1,3.4,23.3,9.7s9.7,14.5,9.7,23.3
					C177.4,255.2,162.7,270,144.5,270z M144.5,217.3c-10.9,0-19.8,8.9-19.8,19.8s8.9,19.8,19.8,19.8s19.8-8.9,19.8-19.8
					S155.4,217.3,144.5,217.3z"/>
			</g>
		</g>
	</g>
</g>
<g>
	<g>
		<g>
			<g>
				<path d="M157.1,465.7c-3.6,0-6.6-3-6.6-6.6s3-6.6,6.6-6.6h197.7c3.6,0,6.6,3,6.6,6.6s-3,6.6-6.6,6.6H157.1z"/>
			</g>
		</g>
	</g>
</g>
<g>
	<g>
		<g>
			<g>
				<path d="M162,431.2c-3.6,0-6.6-3-6.6-6.6s3-6.6,6.6-6.6H350c3.6,0,6.6,3,6.6,6.6s-3,6.6-6.6,6.6H162z"/>
			</g>
		</g>
	</g>
</g>
<g>
	<g>
		<g>
			<g>
				<path d="M166,396.8c-3.6,0-6.6-3-6.6-6.6s3-6.6,6.6-6.6h180c3.6,0,6.6,3,6.6,6.6s-3,6.6-6.6,6.6H166z"/>
			</g>
		</g>
	</g>
</g>
</svg>
