<?xml version="1.0" encoding="utf-8"?>
<!-- Generator: Adobe Illustrator 25.4.1, SVG Export Plug-In . SVG Version: 6.00 Build 0)  -->
<svg version="1.1" id="Capa_1" xmlns="http://www.w3.org/2000/svg" xmlns:xlink="http://www.w3.org/1999/xlink" x="0px" y="0px"
	 viewBox="0 0 512 512" style="enable-background:new 0 0 512 512;" xml:space="preserve">
<g>
	<g>
		<g>
			<g>
				<path d="M38.5,478c-20.9,0-38-17-38-38V171.8c0-20.9,17-38,38-38h435c20.9,0,38,17,38,38V440c0,20.9-17,38-38,38H38.5z
					 M38.5,148.4c-12.9,0-23.5,10.5-23.5,23.5V440c0,12.9,10.5,23.5,23.5,23.5h435c12.9,0,23.5-10.5,23.5-23.5V171.8
					c0-12.9-10.5-23.5-23.5-23.5H38.5z"/>
			</g>
		</g>
		<g>
			<g>
				<path d="M57.8,434.5c-13,0-23.5-10.6-23.5-23.5V200.7c0-13,10.6-23.5,23.5-23.5h307c13,0,23.5,10.6,23.5,23.5v210.2
					c0,13-10.6,23.5-23.5,23.5H57.8z M57.8,191.7c-5,0-9,4.1-9,9v210.2c0,5,4.1,9,9,9h307c5,0,9-4.1,9-9V200.7c0-5-4.1-9-9-9H57.8z"
					/>
			</g>
		</g>
		<g>
			<g>
				<path d="M442.6,235.2c-14,0-25.4-11.4-25.4-25.4c0-14,11.4-25.4,25.4-25.4c14,0,25.4,11.4,25.4,25.4
					C468.1,223.8,456.7,235.2,442.6,235.2z M442.6,198.9c-6,0-10.9,4.9-10.9,10.9s4.9,10.9,10.9,10.9c6,0,10.9-4.9,10.9-10.9
					S448.7,198.9,442.6,198.9z"/>
			</g>
		</g>
		<g>
			<g>
				<path d="M442.6,303.3c-14,0-25.4-11.4-25.4-25.4s11.4-25.4,25.4-25.4c14,0,25.4,11.4,25.4,25.4S456.7,303.3,442.6,303.3z
					 M442.6,267c-6,0-10.9,4.9-10.9,10.9c0,6,4.9,10.9,10.9,10.9c6,0,10.9-4.9,10.9-10.9C453.5,271.9,448.7,267,442.6,267z"/>
			</g>
		</g>
		<g>
			<g>
				<path d="M424.5,369.2c-4,0-7.3-3.3-7.3-7.3c0-4,3.3-7.3,7.3-7.3h36.2c4,0,7.3,3.3,7.3,7.3c0,4-3.3,7.3-7.3,7.3H424.5z"/>
			</g>
		</g>
		<g>
			<g>
				<path d="M424.5,412.7c-4,0-7.3-3.3-7.3-7.3c0-4,3.3-7.3,7.3-7.3h36.2c4,0,7.3,3.3,7.3,7.3c0,4-3.3,7.3-7.3,7.3H424.5z"/>
			</g>
		</g>
		<g>
			<g>
				<path d="M196.2,148.4c-1.9,0-3.8-0.8-5.1-2.1c-1.4-1.4-2.1-3.2-2.1-5.1c0-31,25.3-56.3,56.4-56.4h21.4c31,0,56.3,25.3,56.4,56.4
					c0,1.9-0.8,3.8-2.1,5.1c-1.4,1.4-3.2,2.1-5.1,2.1H196.2z M245.3,99.3c-20,0-37.3,14.3-41.1,34l-0.1,0.6h103.8l-0.1-0.6
					c-3.8-19.7-21.1-34-41.1-34H245.3z"/>
			</g>
		</g>
		<g>
			<g>
				<path d="M283.4,102.3c-1.3,0-2.6-0.4-3.7-1c-3.4-2.1-4.5-6.5-2.5-10l32.4-53.8c1.3-2.2,3.7-3.5,6.2-3.5c1.3,0,2.6,0.4,3.7,1
					c3.4,2.1,4.5,6.5,2.5,10l-32.4,53.8C288.3,101,285.9,102.3,283.4,102.3z"/>
			</g>
		</g>
		<g>
			<g>
				<path d="M233.7,100.7c-2.5,0-4.8-1.3-6.2-3.4l-32.3-52.1c-2.1-3.4-1.1-7.9,2.3-10c1.2-0.7,2.5-1.1,3.8-1.1
					c2.5,0,4.8,1.3,6.2,3.4l32.3,52.1c2.1,3.4,1.1,7.9-2.3,10C236.4,100.3,235.1,100.7,233.7,100.7z"/>
			</g>
		</g>
	</g>
</g>
</svg>
