<?xml version="1.0" encoding="utf-8"?>
<!-- Generator: Adobe Illustrator 25.4.1, SVG Export Plug-In . SVG Version: 6.00 Build 0)  -->
<svg version="1.1" id="Layer_1" xmlns="http://www.w3.org/2000/svg" xmlns:xlink="http://www.w3.org/1999/xlink" x="0px" y="0px"
	 viewBox="0 0 512 512" style="enable-background:new 0 0 512 512;" xml:space="preserve">
<g>
	<path d="M77.1,511c-4.2,0-7.5-3.4-7.5-7.5v-26.6h-1c-13.6,0-24.6-11-24.6-24.6V42.7C44,19.7,62.7,1,85.7,1H427
		c22.9,0,41.6,18.7,41.7,41.7v409.6c0,13.6-11,24.6-24.6,24.6h-1v26.6c0,4.2-3.4,7.5-7.5,7.5H77.1z M84.7,495.9H428v-19.1H84.7
		V495.9z M59.1,452.3c0,5.3,4.3,9.5,9.5,9.5h375.5c5.3,0,9.5-4.3,9.5-9.5V118.5H59.1V452.3z M85.7,16.1C71,16.1,59.1,28,59.1,42.7
		v60.7h394.5V42.7c0-14.7-11.9-26.6-26.6-26.6H85.7z"/>
</g>
<g>
	<path d="M85.7,84.3c-4.2,0-7.5-3.4-7.5-7.5V42.7c0-4.2,3.4-7.5,7.5-7.5h102.4c4.2,0,7.5,3.4,7.5,7.5v34.1c0,4.2-3.4,7.5-7.5,7.5
		H85.7z M93.2,69.3h87.3V50.2H93.2V69.3z"/>
</g>
<g>
	<path d="M239.3,84.3c-13.6,0-24.6-11-24.6-24.6c0-13.6,11-24.6,24.6-24.6c13.6,0,24.6,11,24.6,24.6
		C263.9,73.3,252.8,84.3,239.3,84.3z M239.3,50.2c-5.3,0-9.5,4.3-9.5,9.5c0,5.3,4.3,9.5,9.5,9.5c5.3,0,9.5-4.3,9.5-9.5
		C248.8,54.5,244.5,50.2,239.3,50.2z"/>
</g>
<g>
	<path d="M307.5,84.3c-13.6,0-24.6-11-24.6-24.6c0-13.6,11-24.6,24.6-24.6c13.6,0,24.6,11,24.6,24.6
		C332.1,73.3,321.1,84.3,307.5,84.3z M307.5,50.2c-5.3,0-9.5,4.3-9.5,9.5c0,5.3,4.3,9.5,9.5,9.5c5.3,0,9.5-4.3,9.5-9.5
		C317.1,54.5,312.8,50.2,307.5,50.2z"/>
</g>
<g>
	<path d="M358.7,67.3c-4.2,0-7.5-3.4-7.5-7.5c0-4.2,3.4-7.5,7.5-7.5h17.1c4.2,0,7.5,3.4,7.5,7.5c0,4.2-3.4,7.5-7.5,7.5H358.7z"/>
</g>
<g>
	<path d="M409.9,67.3c-4.2,0-7.5-3.4-7.5-7.5c0-4.2,3.4-7.5,7.5-7.5H427c4.2,0,7.5,3.4,7.5,7.5c0,4.2-3.4,7.5-7.5,7.5H409.9z"/>
</g>
<g>
	<path d="M256.3,425.7c-74.7,0-135.5-60.8-135.5-135.5c0-74.7,60.8-135.5,135.5-135.5c74.6,0.1,135.4,60.9,135.5,135.5
		C391.9,364.9,331.1,425.7,256.3,425.7z M256.3,169.7c-66.4,0-120.5,54-120.5,120.5c0,66.4,54,120.5,120.5,120.5
		c66.4-0.1,120.4-54.1,120.5-120.5C376.8,223.7,322.8,169.7,256.3,169.7z"/>
</g>
<g>
	<path d="M256.3,400.1c-44.3,0-84.1-26.4-101.3-67.2c-0.1-0.2-0.2-0.3-0.3-0.5l0,0c0-0.1,0-0.3-0.1-0.5l0-0.1
		c-5.5-13.4-8.3-27.5-8.3-41.9c0.1-60.5,49.3-109.7,109.8-109.7l0.5,0c9.6,0,19.1,1.3,28.4,3.8c28.2,7.6,51.8,25.7,66.5,51.1
		c14.6,25.3,18.5,54.9,10.9,83.1c0,0.2-0.1,0.3-0.1,0.4c-8.8,33.1-32,59.7-63.5,72.9C285.3,397.2,271,400.1,256.3,400.1
		C256.3,400.1,256.3,400.1,256.3,400.1z M232.3,323.2c-0.5,0-1,0-1.6,0c-19.5,0.8-38.7,4.4-57.2,10.7l-1.1,0.4l0.6,1
		c16.6,30.6,48.6,49.6,83.3,49.6c36.3,0,68.8-20.3,84.9-52.8l1.3-2.7l-2.7,1.3c-12.5,6.2-26.5,9.4-40.4,9.4l-0.5,0
		c-0.6,0-1.2,0-1.7,0c-12.5,0-24.8-3.2-35.8-9.3C252.7,326,242.5,323.2,232.3,323.2z M232.4,308.2c12.5,0,24.9,3.2,35.8,9.3
		c8.9,5.1,19,7.8,29.3,7.8c0.5,0,1,0,1.6,0h0.1c12.5,0,25-3,36.1-8.8c4.2-1.9,8.5-3.6,12.9-5.1l0.5-0.2l0.1-0.6
		c1.5-6.9,2.3-13.9,2.3-21c-0.1-52.1-42.6-94.4-94.6-94.4l-0.3,0c-10,0-19.9,1.6-29.4,4.7c-24.1,7.9-43.6,24.6-55.1,47.2
		c-11.5,22.6-13.4,48.2-5.6,72.3l0.3,1l1-0.3c20.4-7,41.7-11,63.3-11.9C231.3,308.2,231.9,308.2,232.4,308.2z"/>
</g>
</svg>
