<?xml version="1.0" encoding="utf-8"?>
<!-- Generator: Adobe Illustrator 25.4.1, SVG Export Plug-In . SVG Version: 6.00 Build 0)  -->
<svg version="1.1" id="Layer_2_00000170994851122364417950000008309703487440985741_"
	 xmlns="http://www.w3.org/2000/svg" xmlns:xlink="http://www.w3.org/1999/xlink" x="0px" y="0px" viewBox="0 0 512 512"
	 style="enable-background:new 0 0 512 512;" xml:space="preserve">
<g>
	<path d="M237.8,381.7c-3.9,0-7.1-3.2-7.1-7.1s3.2-7.1,7.1-7.1h36.5c3.9,0,7.1,3.2,7.1,7.1s-3.2,7.1-7.1,7.1H237.8z"/>
</g>
<g>
	<path d="M183,381.7c-3.9,0-7.1-3.2-7.1-7.1s3.2-7.1,7.1-7.1h9.1c3.9,0,7.1,3.2,7.1,7.1s-3.2,7.1-7.1,7.1H183z"/>
</g>
<g>
	<path d="M319.9,381.7c-3.9,0-7.1-3.2-7.1-7.1s3.2-7.1,7.1-7.1h9.1c3.9,0,7.1,3.2,7.1,7.1s-3.2,7.1-7.1,7.1H319.9z"/>
</g>
<g>
	<path d="M310.8,473c-3.9,0-7.1-3.2-7.1-7.1V416l-2.2,0.2c-16,1.3-30.9,2-45.5,2c-14.5,0-29.4-0.7-45.5-2l-2.2-0.2v49.9
		c0,3.9-3.2,7.1-7.1,7.1h-36.5c-3.9,0-7.1-3.2-7.1-7.1v-57l-1.6-0.3c-13.2-2.5-26.3-5.5-38.7-8.8c-3.1-0.8-5.3-3.7-5.3-6.9V64.4
		c0-3.3,2.1-6.1,5.3-6.9C163.1,45.2,209.8,39,256,39s92.9,6.2,138.7,18.4c3.1,0.8,5.3,3.7,5.3,6.9v328.5c0,3.2-2.1,6-5.3,6.9
		c-12.4,3.3-25.4,6.3-38.7,8.8l-1.6,0.3v57c0,3.9-3.2,7.1-7.1,7.1H310.8z M337.8,411.7c-5.6,0.9-11.6,1.8-18.2,2.5l-1.8,0.2v44.3
		h22.2v-47.4L337.8,411.7z M171.9,458.7h22.2v-44.3l-1.8-0.2c-5.7-0.7-11.1-1.5-16.9-2.4l-3.6-0.5V458.7z M126.2,387.3l1.5,0.4
		c42.4,10.7,85.6,16.2,128.4,16.2c42.7,0,85.8-5.4,128.1-16.1l1.5-0.4v-42.2H126.2V387.3z M256,53.3c-42.7,0-85.9,5.4-128.2,16.1
		l-1.5,0.4V331h259.5V69.8l-1.5-0.4C341.9,58.7,298.7,53.3,256,53.3z"/>
</g>
<g>
	<path d="M256,263.1c-19,0-34.5-15.5-34.5-34.5v-91.2c0-19,15.5-34.5,34.5-34.5s34.5,15.5,34.5,34.5v91.2
		C290.5,247.6,275,263.1,256,263.1z M235.8,228.6c0,11.2,9.1,20.2,20.2,20.2s20.2-9.1,20.2-20.2v-91.2c0-11.2-9.1-20.2-20.2-20.2
		s-20.2,9.1-20.2,20.2v11.1h11.1c3.9,0,7.1,3.2,7.1,7.1s-3.2,7.1-7.1,7.1h-11.1V228.6z"/>
</g>
</svg>
