<?xml version="1.0" encoding="utf-8"?>
<!-- Generator: Adobe Illustrator 24.0.3, SVG Export Plug-In . SVG Version: 6.00 Build 0)  -->
<svg version="1.1" id="Layer_1" xmlns="http://www.w3.org/2000/svg" xmlns:xlink="http://www.w3.org/1999/xlink" x="0px" y="0px"
	 viewBox="0 0 512 512" style="enable-background:new 0 0 512 512;" xml:space="preserve">
<style type="text/css">
	.st0{fill:#D1E7F8;}
	.st1{fill:#4F6D8F;}
	.st2{fill:#BDE3F9;}
	.st3{fill:#4A6784;}
</style>
<g>
	<path class="st0" d="M365.3,0H146.7c-19,0-34.5,15.5-34.5,34.5v415.2c0,17.7,13.5,32.4,30.7,34.3v19.2c0,4.8,4,8.8,8.8,8.8h39.1
		c4.8,0,8.8-4,8.8-8.8v-19h112.8v19c0,4.8,4,8.8,8.8,8.8h39.1c4.8,0,8.8-4,8.8-8.8V484c17.2-1.9,30.7-16.6,30.7-34.3V34.5
		C399.8,15.5,384.2,0,365.3,0L365.3,0z"/>
	<path class="st1" d="M152.3,47.6h16.8c2.1,0,3.8,1.7,3.8,3.8v87.9c0,2.1-1.7,3.8-3.8,3.8h-16.8c-2.1,0-3.8-1.7-3.8-3.8V51.4
		C148.5,49.3,150.2,47.6,152.3,47.6z"/>
	<path class="st2" d="M365.3,0h-10.2c5.4,6.1,8.7,14.1,8.7,22.8v149.8c0,5.5-4.5,10-10,10H112.2v16h241.5c5.5,0,10,4.5,10,10V438
		c0,19-15.5,34.5-34.5,34.5H120.9c6.3,7.1,15.6,11.7,25.8,11.7h218.6c19,0,34.5-15.5,34.5-34.5V34.5C399.8,15.5,384.2,0,365.3,0
		L365.3,0z"/>
	<path class="st1" d="M152.3,238.2h16.8c2.1,0,3.8,1.7,3.8,3.8v112.6c0,2.1-1.7,3.8-3.8,3.8h-16.8c-2.1,0-3.8-1.7-3.8-3.8V242
		C148.5,239.9,150.2,238.2,152.3,238.2z"/>
	<g>
		<path class="st1" d="M146.7,484.2c-1.3,0-2.6-0.1-3.8-0.2v19.2c0,4.8,4,8.8,8.8,8.8h39.1c4.8,0,8.8-4,8.8-8.8v-19H146.7z"/>
		<path class="st1" d="M365.3,484.2h-52.9v19c0,4.8,4,8.8,8.8,8.8h39.1c4.8,0,8.8-4,8.8-8.8V484
			C367.8,484.1,366.6,484.2,365.3,484.2L365.3,484.2z"/>
	</g>
	<g>
		<path class="st3" d="M179.3,497.9c0,4.8-4,8.8-8.8,8.8h-26.9c1.4,3.1,4.5,5.3,8.1,5.3h39.1c4.8,0,8.8-4,8.8-8.8v-19h-20.3
			L179.3,497.9z"/>
		<path class="st3" d="M348.5,497.9c0,4.8-4,8.8-8.8,8.8h-26.9c1.4,3.1,4.5,5.3,8.1,5.3h39.1c4.8,0,8.8-4,8.8-8.8v-19h-20.3V497.9z"
			/>
	</g>
</g>
</svg>
