<?xml version="1.0" encoding="utf-8"?>
<!-- Generator: Adobe Illustrator 24.0.3, SVG Export Plug-In . SVG Version: 6.00 Build 0)  -->
<svg version="1.1" id="Capa_1" xmlns="http://www.w3.org/2000/svg" xmlns:xlink="http://www.w3.org/1999/xlink" x="0px" y="0px"
	 viewBox="0 0 512 512" style="enable-background:new 0 0 512 512;" xml:space="preserve">
<style type="text/css">
	.st0{fill:#585A60;}
	.st1{fill:#BABABA;}
	.st2{fill:#989DA0;}
	.st3{fill:#414356;}
	.st4{fill:#6EDCF9;}
	.st5{fill:#42CBEA;}
	.st6{fill:#E5E5E5;}
	.st7{fill:#CFD0D1;}
	.st8{fill:#E09068;}
	.st9{fill:#D3835F;}
	.st10{fill:#F0A479;}
	.st11{fill:#4A94CC;}
	.st12{fill:#3C8ABA;}
	.st13{fill:#2571A0;}
	.st14{fill:#EA473B;}
	.st15{fill:#D83530;}
</style>
<path class="st0" d="M350.8,1.9c-3.1-2.8-8-2.5-10.7,0.7c-28.3,32-68.8,77.7-83.3,93.9c-14.5-16.2-55-61.9-83.3-93.9
	c-2.8-3.1-7.6-3.4-10.7-0.7c-3.1,2.8-3.4,7.6-0.7,10.7c0,0,22.2,25.1,44.4,50.1c11.1,12.5,22.2,25.1,30.6,34.5
	c4.2,4.7,7.7,8.6,10.2,11.4c1.1,1.2,4.3,4.8,5.4,5.6c2.3,1.7,6,1.7,8.3,0c1.2-0.8,4.3-4.4,5.4-5.6c9.1-10.2,31.6-35.5,40.7-45.8
	c22.2-25.1,44.4-50.1,44.4-50.1C354.3,9.5,354,4.7,350.8,1.9z"/>
<path class="st1" d="M311.4,116.5c-0.4-0.6-3.9-5.3-11.3-5.3h-86.6c-7.4,0-10.9,4.7-11.3,5.3l-23.6,35.3H335L311.4,116.5z"/>
<path class="st2" d="M233.3,111.2h-19.8c-7.4,0-10.9,4.7-11.3,5.3l-23.6,35.3h19.8l23.6-35.3C222.4,115.9,225.9,111.2,233.3,111.2z"
	/>
<path class="st0" d="M491.4,150.7c-2.8,0-466.2,0-470.9,0c-9.3,0-16.8,7.5-16.8,16.8c0,23.3,0,316.1,0,327.8
	c0,9.3,7.5,16.8,16.8,16.8c10,0,107,0,122.3,0c49.9,0,344.8,0,348.6,0c9.3,0,16.8-7.5,16.8-16.8c0-11.8,0-304.7,0-327.8
	C508.2,158.2,500.7,150.7,491.4,150.7z"/>
<path class="st3" d="M24.1,495.2c0-11.7,0-304.5,0-327.8c0-9.3,7.5-16.8,16.8-16.8c-12.4,0-19.7,0-20.3,0c-9.3,0-16.8,7.5-16.8,16.8
	c0,23.3,0,316.1,0,327.8c0,9.3,7.5,16.8,16.8,16.8c2.4,0,10,0,20.3,0C31.6,512,24.1,504.5,24.1,495.2z"/>
<path class="st4" d="M356.1,460.1c0,6.7-5.5,12.2-12.2,12.2H50.7c-6.7,0-12.2-5.5-12.2-12.2V199.5c0-6.7,5.5-12.2,12.2-12.2H344
	c6.7,0,12.2,5.5,12.2,12.2V460.1z"/>
<path class="st5" d="M58.8,460.1V199.5c0-6.7,5.5-12.2,12.2-12.2H50.7c-6.7,0-12.2,5.5-12.2,12.2v260.6c0,6.7,5.5,12.2,12.2,12.2H71
	C64.3,472.3,58.8,466.8,58.8,460.1z"/>
<g>
	<circle class="st6" cx="429.7" cy="213.2" r="25.9"/>
	<circle class="st6" cx="429.7" cy="299.6" r="25.9"/>
</g>
<g>
	<path class="st7" d="M429.7,213.2c0-9.6,5.2-17.9,12.9-22.4c-3.8-2.2-8.2-3.5-12.9-3.5c-14.3,0-25.9,11.6-25.9,25.9
		c0,14.3,11.6,25.9,25.9,25.9c4.7,0,9.1-1.3,12.9-3.5C434.9,231.2,429.7,222.8,429.7,213.2z"/>
	<path class="st7" d="M429.7,299.6c0-9.6,5.2-17.9,12.9-22.4c-3.8-2.2-8.2-3.5-12.9-3.5c-14.3,0-25.9,11.6-25.9,25.9
		c0,14.3,11.6,25.9,25.9,25.9c4.7,0,9.1-1.3,12.9-3.5C434.9,317.5,429.7,309.2,429.7,299.6z"/>
</g>
<g>
	<path class="st2" d="M463.7,368h-63.6c-4.2,0-7.6-3.4-7.6-7.6s3.4-7.6,7.6-7.6h63.6c4.2,0,7.6,3.4,7.6,7.6S467.9,368,463.7,368z"/>
	<path class="st2" d="M463.7,396.8h-63.6c-4.2,0-7.6-3.4-7.6-7.6s3.4-7.6,7.6-7.6h63.6c4.2,0,7.6,3.4,7.6,7.6
		C471.3,393.3,467.9,396.8,463.7,396.8z"/>
	<path class="st2" d="M463.7,425.5h-63.6c-4.2,0-7.6-3.4-7.6-7.6s3.4-7.6,7.6-7.6h63.6c4.2,0,7.6,3.4,7.6,7.6
		C471.3,422.1,467.9,425.5,463.7,425.5z"/>
	<path class="st2" d="M463.7,454.2h-63.6c-4.2,0-7.6-3.4-7.6-7.6s3.4-7.6,7.6-7.6h63.6c4.2,0,7.6,3.4,7.6,7.6
		C471.3,450.8,467.9,454.2,463.7,454.2z"/>
	<path class="st2" d="M463.7,482.9h-63.6c-4.2,0-7.6-3.4-7.6-7.6s3.4-7.6,7.6-7.6h63.6c4.2,0,7.6,3.4,7.6,7.6
		C471.3,479.5,467.9,482.9,463.7,482.9z"/>
</g>
<path class="st0" d="M197.3,216.4c-33,0-59.8,26.8-59.8,59.8v11.1v72c0,5.1,4.1,9.2,9.2,9.2c1,0,5.2,0,11.3,0c4.2,0,9.3,0,15,0h48.6
	c13.8,0,24.5,0,26.3,0c5.1,0,9.2-4.1,9.2-9.2c0-2.2,0-7.3,0-14c0-6.6,0-14.8,0-23.2v-23.7c0-10.6,0-19.2,0-22.3
	C257.1,243.1,230.3,216.4,197.3,216.4z"/>
<path class="st3" d="M157.8,359.2c0-11.3,0-75,0-83.1c0-29.6,21.5-54.1,49.6-58.9c-3.3-0.6-6.7-0.9-10.1-0.9
	c-33,0-59.8,26.8-59.8,59.8v11.1v72c0,5.1,4.1,9.2,9.2,9.2c1,0,5.2,0,11.3,0c2.7,0,5.7,0,9,0C161.9,368.4,157.8,364.3,157.8,359.2z"
	/>
<path class="st8" d="M221.6,357.9c-6.8,4.5-14.9,7.2-23.7,7.2c-9.6,0-18.1-2.7-24.9-7.2c0,30.1-0.3,35.4,1,36.7
	c22.5,21.8,21.3,21.2,23.3,21.2c0.9,0,1.7-0.3,2.4-1c22.5-21.8,21.9-20.7,21.9-22.7L221.6,357.9L221.6,357.9L221.6,357.9z"/>
<path class="st9" d="M192.8,364.8c-7.5-0.8-14.2-3.3-19.8-7c0,30.1-0.3,35.4,1,36.7c10.5,10.2,15.8,15.4,18.7,18.2L192.8,364.8
	L192.8,364.8z"/>
<path class="st8" d="M240,294.4c10.7-3.2,21.4,4.8,21.4,15.9c0,9.2-7.4,16.6-16.6,16.6c-1.7,0-3.3-0.2-4.8-0.7V294.4z"/>
<path class="st9" d="M257.1,299.1c-4.1-4.5-10.6-6.7-17.1-4.7v31.8c1.5,0.5,3.1,0.7,4.8,0.7c4.9,0,9.2-2.1,12.3-5.5L257.1,299.1
	L257.1,299.1z"/>
<path class="st10" d="M238.2,285.9c-4.4-1.3-15.8-5.5-26.5-16.7c-0.7-0.7-1.6-1.1-2.6-1.1c-1,0-1.9,0.5-2.5,1.2
	c-7.1,8.2-26.2,28.1-50.4,36.9c-1.4,0.5-2.3,1.8-2.3,3.2v16.2c0,22.3,17.5,42.7,44,42.7c23.6,0,42.7-19.2,42.7-42.7v-36.4
	C240.7,287.7,239.7,286.3,238.2,285.9z"/>
<path class="st8" d="M174.3,325.7v-28.4c-5.6,3.5-11.6,6.6-18,8.9c-1.4,0.5-2.3,1.8-2.3,3.2v16.2c0,22.3,17.5,42.7,44,42.7
	c3.3,0,6.5-0.4,9.5-1.1C188.5,363,174.3,346,174.3,325.7z"/>
<path class="st11" d="M285.9,403.6l-64.3-25.2v10.5c0,2,0.6,0.9-21.9,22.7c-0.7,0.6-1.5,1-2.4,1c-1.9,0-0.8,0.6-23.3-21.2
	c-1-1-1.1-0.5-1.1-12.9l-64.3,25.2c0,0-23.8,9.8-23.8,36.9c0,8.3,0,19.6,0,31.8h224.8c0-12.2,0-23.6,0-31.8
	C309.7,413.3,285.9,403.6,285.9,403.6z"/>
<path class="st12" d="M120,399.1l-11.2,4.4c0,0-23.8,9.8-23.8,36.9c0,8.3,0,19.6,0,31.8h20.3c0-12.2,0-33.7,0-42
	C105.2,414.6,113.2,404.7,120,399.1z"/>
<g>
	<path class="st13" d="M158.1,419.6c0.1,0.4,0.2,0.9,0.3,1.3c1.7,5.7,6.3,4.7,8.4,3.8l1-0.5l0,0l0,0l27.4-12.6
		c-2-1.6-6.7-6.4-21.1-20.3c-1-1-1.1-0.5-1.1-12.9l-16.5,6.5v0.2c-2.4,12.9-0.4,25.8,1.5,34C158,419.2,158.1,419.4,158.1,419.6z"/>
	<path class="st13" d="M225.5,423.6c0,0,8.8,4,11-4c2-8.1,4.2-21.4,1.6-34.6l0.1-0.2l-16.6-6.5v10.5c0,2,0.6,0.9-21.9,22.7
		c-0.1,0.1-0.1,0.1-0.2,0.2L225.5,423.6L225.5,423.6z"/>
</g>
<path class="st14" d="M38.5,463.1c0,6.7,5.5,12.2,12.2,12.2H344c6.7,0,12.2-5.5,12.2-12.2v-16.2H38.5V463.1z"/>
<path class="st15" d="M58.8,463.1v-16.2H38.5v16.2c0,6.7,5.5,12.2,12.2,12.2H71C64.3,475.3,58.8,469.9,58.8,463.1z"/>
</svg>
