<?xml version="1.0" encoding="utf-8"?>
<!-- Generator: Adobe Illustrator 24.0.3, SVG Export Plug-In . SVG Version: 6.00 Build 0)  -->
<svg version="1.1" id="Capa_1" xmlns="http://www.w3.org/2000/svg" xmlns:xlink="http://www.w3.org/1999/xlink" x="0px" y="0px"
	 viewBox="0 0 512 512" style="enable-background:new 0 0 512 512;" xml:space="preserve">
<style type="text/css">
	.st0{fill:#E0E0E0;}
	.st1{fill:#C4C4C4;}
	.st2{fill:#66BAEA;}
	.st3{fill:#3AAAE4;}
	.st4{fill:#67676B;}
	.st5{fill:#AAAAAA;}
</style>
<g>
	<path class="st0" d="M476,100.7H36c-19.8,0-36,16.1-36,36v160c0,19.8,16.1,36,36,36h440c19.8,0,36-16.1,36-36v-160
		C512,116.8,495.9,100.7,476,100.7z"/>
	<path class="st1" d="M476,300.3H36c-19.8,0-36-16.1-36-36v32.5c0,19.8,16.1,36,36,36h440c19.8,0,36-16.1,36-36v-32.5
		C512,284.1,495.9,300.3,476,300.3z"/>
	<path class="st2" d="M450.5,261.2h-389c-4.2,0-7.5,3.4-7.5,7.5v56.5c0,4.2,3.4,7.5,7.5,7.5h389c4.2,0,7.5-3.4,7.5-7.5v-56.5
		C458,264.6,454.7,261.2,450.5,261.2z"/>
	<path class="st3" d="M54,298.1v27.1c0,4.2,3.4,7.5,7.5,7.5h389c4.2,0,7.5-3.4,7.5-7.5v-27.1H54z"/>
	<rect x="54" y="289.4" class="st4" width="404" height="15"/>
	<path class="st5" d="M450.5,161.8h-22.2c-4.2,0-7.5-3.4-7.5-7.5s3.4-7.5,7.5-7.5h22.2c4.2,0,7.5,3.4,7.5,7.5
		C458,158.4,454.7,161.8,450.5,161.8z"/>
	<path class="st5" d="M394,161.8H251.7c-4.2,0-7.5-3.4-7.5-7.5s3.4-7.5,7.5-7.5H394c4.2,0,7.5,3.4,7.5,7.5
		C401.5,158.4,398.1,161.8,394,161.8z"/>
	<g>
		<path class="st2" d="M117.1,411.3c-2.4,0-4.7-1.1-6.1-3.2c-2.4-3.4-1.6-8.1,1.8-10.5c20.9-14.8,21.1-37.1,21.1-37.3
			c0-4.2,3.4-7.5,7.5-7.5c4.2,0,7.5,3.4,7.5,7.5c0,1.2-0.3,30.3-27.4,49.6C120.2,410.8,118.6,411.3,117.1,411.3z"/>
		<path class="st2" d="M195.2,411.3c-4.2,0-7.5-3.4-7.5-7.5v-43.5c0-4.2,3.4-7.5,7.5-7.5s7.5,3.4,7.5,7.5v43.5
			C202.7,407.9,199.3,411.3,195.2,411.3z"/>
		<path class="st2" d="M258.1,411.3c-4.2,0-7.5-3.4-7.5-7.5v-43.5c0-4.2,3.4-7.5,7.5-7.5c4.2,0,7.5,3.4,7.5,7.5v43.5
			C265.6,407.9,262.3,411.3,258.1,411.3z"/>
		<path class="st2" d="M394.9,411.3c-1.5,0-3-0.5-4.3-1.4c-27.1-19.3-27.4-48.3-27.4-49.6c0-4.2,3.4-7.5,7.5-7.5
			c4.1,0,7.5,3.3,7.5,7.5c0,1,0.5,22.7,21.1,37.4c3.4,2.4,4.2,7.1,1.8,10.5C399.5,410.2,397.2,411.3,394.9,411.3z M378.1,360.3
			L378.1,360.3L378.1,360.3z"/>
		<path class="st2" d="M316.8,411.3c-4.2,0-7.5-3.4-7.5-7.5v-43.5c0-4.2,3.4-7.5,7.5-7.5s7.5,3.4,7.5,7.5v43.5
			C324.3,407.9,321,411.3,316.8,411.3z"/>
	</g>
</g>
</svg>
