<?xml version="1.0" encoding="utf-8"?>
<!-- Generator: Adobe Illustrator 24.0.3, SVG Export Plug-In . SVG Version: 6.00 Build 0)  -->
<svg version="1.1" id="Layer_1" xmlns="http://www.w3.org/2000/svg" xmlns:xlink="http://www.w3.org/1999/xlink" x="0px" y="0px"
	 viewBox="0 0 512 512" style="enable-background:new 0 0 512 512;" xml:space="preserve">
<style type="text/css">
	.st0{fill:#494953;}
	.st1{fill:#36363F;}
	.st2{fill:#DDDEE0;}
	.st3{fill:#C8CACC;}
	.st4{fill:#FCB100;}
	.st5{fill:#14B0BF;}
	.st6{fill:#FFFFFF;}
	.st7{fill:#EA4031;}
</style>
<g>
	<g>
		<g>
			<path class="st0" d="M313.5,109.7h-24.8V80.6c0-15.4,12.5-28,28-28h57.6v24.8h-57.6c-1.7,0-3.2,1.5-3.2,3.2L313.5,109.7z"/>
		</g>
		<g>
			<path class="st0" d="M223.2,109.7h-24.8V80.6c0-1.8-1.5-3.2-3.2-3.2h-57.6V52.7h57.6c15.4,0,28,12.5,28,28L223.2,109.7z"/>
		</g>
		<g>
			<path class="st0" d="M243.6,34.6h24.8v75.1h-24.8L243.6,34.6z"/>
		</g>
	</g>
	<g>
		<g>
			<path class="st1" d="M234,440.7v32.6c0,2.3-1.9,4.2-4.2,4.2h-19.3c-2.3,0-4.2-1.9-4.2-4.2v-32.6L234,440.7z"/>
			<path class="st1" d="M349.3,440.7v32.6c0,2.3-1.9,4.2-4.2,4.2h-19.3c-2.3,0-4.2-1.9-4.2-4.2v-32.6L349.3,440.7z"/>
		</g>
		<g>
			<path class="st1" d="M190.2,440.7v32.6c0,2.3-1.9,4.2-4.2,4.2h-19.3c-2.3,0-4.2-1.9-4.2-4.2v-32.6L190.2,440.7z"/>
			<path class="st1" d="M305.5,440.7v32.6c0,2.3-1.9,4.2-4.2,4.2H282c-2.3,0-4.2-1.9-4.2-4.2v-32.6L305.5,440.7z"/>
		</g>
	</g>
	<path class="st2" d="M365.6,124.3V424c0,11.3-7.7,21.2-18.7,24.1c-60.7,15.8-121.4,15.8-182,0c-10.9-2.8-18.7-12.7-18.7-24.1V124.3
		c0-11.3,7.7-21.2,18.7-24.1c60.7-15.8,121.4-15.8,182,0C358,103.1,365.6,113,365.6,124.3L365.6,124.3z"/>
	<path class="st3" d="M347,100.3c-14.5-3.7-28.9-6.6-43.4-8.6v365c14.5-2,28.9-4.8,43.4-8.6c10.9-2.8,18.7-12.7,18.7-24.1V124.3
		C365.6,113,358,103.1,347,100.3L347,100.3z"/>
	<path class="st0" d="M365.6,355.8V424c0,11.3-7.7,21.2-18.7,24c-60.6,15.8-121.4,15.8-182,0c-11-2.9-18.7-12.7-18.7-24v-68.2
		C219.4,332.8,292.5,332.8,365.6,355.8L365.6,355.8z"/>
	<path class="st1" d="M303.6,341.9v114.7c14.5-2,28.9-4.8,43.4-8.6c11-2.9,18.7-12.7,18.7-24v-68.2
		C344.9,349.3,324.3,344.8,303.6,341.9L303.6,341.9z"/>
	<path class="st4" d="M287.7,399.2c0,17.6-14.3,31.8-31.7,31.8c-17.6,0-31.8-14.3-31.8-31.8c0-17.5,14.3-31.7,31.8-31.7
		C273.5,367.5,287.7,381.7,287.7,399.2L287.7,399.2z"/>
	<path class="st5" d="M239.8,387.7h32.4v16.7h-32.4V387.7z"/>
	<g>
		<path class="st2" d="M319.1,419.4c0,7-5.7,12.7-12.7,12.7s-12.7-5.7-12.7-12.7s5.7-12.7,12.7-12.7
			C313.3,406.8,319.1,412.4,319.1,419.4z"/>
		<path class="st6" d="M303.6,406.4h5.5v15.4h-5.5V406.4z"/>
	</g>
	<g>
		<path class="st2" d="M319.1,381c0,7-5.7,12.7-12.7,12.7s-12.7-5.7-12.7-12.7s5.7-12.7,12.7-12.7C313.3,368.3,319.1,374,319.1,381z
			"/>
		<path class="st6" d="M303.6,367.9h5.5v15.4h-5.5V367.9z"/>
	</g>
	<g>
		<path class="st2" d="M180.3,366.8h25.1v7.7h-25.1L180.3,366.8z"/>
		<path class="st2" d="M180.3,382.6h25.1v7.7h-25.1L180.3,382.6z"/>
		<path class="st2" d="M180.3,398.4h25.1v7.7h-25.1L180.3,398.4z"/>
		<path class="st2" d="M180.3,414.2h25.1v7.7h-25.1L180.3,414.2z"/>
	</g>
	<path class="st7" d="M277.7,251c-3.5,8-10.8,11.5-18.2,8.8c8.1-6.7,8.9-15.4,6.6-24.7c-1.9-7.6-7-12.9-13.5-17.3
		c0.2,1.6,0.4,3.3,0.6,4.8c1.1,7.5-1.5,13.8-6.4,19.4c-2.8,3.1-5.8,6.2-8.6,9.3c-11.3,12.5-10.8,27.7,1.3,39.6
		c0.4,0.4,1.1,0.6,1.3,1.2c-6.3-0.3-11.3-3-15.8-6.8c-12.1-10.2-17.1-23.1-14-38.7c1.3-6.6,5.4-11.8,9.1-17.2c1.3-2,2.6-4.1,3.6-6.2
		c3.1-6.8,0.2-14-6.8-16.9c-0.6-0.2-1-0.5-2.1-1c3.3-2.8,6.8-4.2,10.5-4.4c3.7-0.3,7.5-0.1,11.5-0.1c-0.2-0.5-0.6-1.4-1-2.2
		c-4.5-11.3-3.7-28.8,9.7-37.6c8.8-5.9,17.9-5.7,27.5-0.6c-0.8,0.3-1.1,0.6-1.5,0.7c-7.1,2-10.8,8.2-9.1,15.4
		c1.1,4.7,3.5,8.7,6.6,12.5c7.3,8.9,14.9,17.5,21.4,26.8c7.9,11.2,12.5,23.7,11.4,38c-1.2,16.7-14.5,33.7-30.6,38.4
		c-0.3,0.1-0.8,0.1-1.9,0.4c10-8,15.3-17.5,14.2-29.8C283.1,258.1,281.8,253.9,277.7,251L277.7,251z"/>
</g>
</svg>
