<?xml version="1.0" encoding="utf-8"?>
<!-- Generator: Adobe Illustrator 24.0.3, SVG Export Plug-In . SVG Version: 6.00 Build 0)  -->
<svg version="1.1" id="Layer_1" xmlns="http://www.w3.org/2000/svg" xmlns:xlink="http://www.w3.org/1999/xlink" x="0px" y="0px"
	 viewBox="0 0 512 512" style="enable-background:new 0 0 512 512;" xml:space="preserve">
<style type="text/css">
	.st0{enable-background:new    ;}
	.st1{fill:#BFBFBF;}
	.st2{fill:#787677;}
	.st3{fill:#B0AFB0;}
	.st4{fill:#E8E8E8;}
	.st5{fill:#4F4D4D;}
	.st6{fill:#FFFFFF;}
	.st7{fill:#686868;}
	.st8{fill:#929393;}
	.st9{fill:#B9B9BA;}
	.st10{fill:#475160;}
	.st11{fill:#EF5A5A;}
	.st12{fill:#A9C838;}
	.st13{fill:#FEE44B;}
	.st14{fill:#69C4EF;}
</style>
<g>
	<g>
		<g>
			<g>
				<g class="st0">
					<g>
						<path class="st1" d="M479.7,385.8V403c-0.6,0.5-169.7,98.8-169.7,98.8c-4.4,2.6-10.5,3.4-16.3,2.9l0.1-17.1
							c5.7,0.6,11.8-0.4,16.2-3C310,484.7,479.1,386.4,479.7,385.8L479.7,385.8z"/>
						<g>
							<path class="st2" d="M465.9,400v5l-13.3,7.8v-5L465.9,400z"/>
							<path class="st2" d="M449.7,409.5v5l-13.3,7.8v-5L449.7,409.5z"/>
						</g>
					</g>
					<g>
						<path class="st3" d="M37.3,332.9l246.1,151.7c2.9,1.7,6.6,2.5,10.3,2.8v17.3c-3.8-0.3-7.4-1.2-10.3-2.9L37.3,350.2
							c-3.7-2.1-5.5-4.9-5.5-7.6v-17.3C31.8,328.1,33.6,330.8,37.3,332.9L37.3,332.9z"/>
					</g>
					<g>
						<path class="st4" d="M471,375.5c7.4,4.3,7.4,11.1,0.1,15.4L310,484.6c-7.3,4.3-19.2,4.3-26.5,0L37.3,333
							c-7.3-4.2-7.3-11.1,0-15.3l151.5-88.8c7.3-4.3,19.2-4.3,26.5,0L471,375.5z"/>
					</g>
				</g>
			</g>
			<g>
				<g class="st0">
					<path class="st2" d="M188.4,16.9c3-1.7,7.1-1.5,11.6,1.2l249,143.8c9.1,5.3,16.4,17.9,16.3,28.4l-0.5,204.3l14.9-8.7l0.5-204.3
						c0-10.5-7.2-23.1-16.3-28.4L214.8,9.4c-4.4-2.6-8.6-2.9-11.5-1.2L188.4,16.9z"/>
					<g>
						<path class="st5" d="M449,161.8c9.1,5.2,16.3,17.9,16.3,28.3l-0.6,204.4L183,231.9l0.6-204.4c0-10.4,7.4-14.7,16.4-9.4
							L449,161.8z"/>
						<path class="st6" d="M454.7,190.1c0-6.7-5.2-15.8-11-19.1c0,0-249.4-144-249.6-144.1c0,0.2-0.6,198.9-0.6,198.9l260.6,150.5
							L454.7,190.1z"/>
					</g>
				</g>
			</g>
		</g>
		<g>
			<g class="st0">
				<g>
					<path class="st7" d="M207,260.8l0,1.8l-16.2,9.4l0-1.8L207,260.8z"/>
				</g>
				<g>
					<path class="st5" d="M190.7,270.2l0,1.8l-16.3-9.4l0-1.8L190.7,270.2z"/>
				</g>
				<g>
					<path class="st8" d="M207,260.8l-16.2,9.4l-16.3-9.4l16.2-9.4L207,260.8z"/>
				</g>
			</g>
			<g class="st0">
				<g>
					<path class="st7" d="M227.4,272.5l0,1.8l-16.2,9.4l0-1.8L227.4,272.5z"/>
				</g>
				<g>
					<path class="st5" d="M211.1,282l0,1.8l-16.3-9.4l0-1.8L211.1,282z"/>
				</g>
				<g>
					<path class="st8" d="M227.4,272.5l-16.2,9.4l-16.3-9.4l16.2-9.4L227.4,272.5z"/>
				</g>
			</g>
			<g class="st0">
				<g>
					<path class="st7" d="M247.8,284.3l0,1.8l-16.2,9.4l0-1.8L247.8,284.3z"/>
				</g>
				<g>
					<path class="st5" d="M231.5,293.8l0,1.8l-16.4-9.4l0-1.8L231.5,293.8z"/>
				</g>
				<g>
					<path class="st8" d="M247.8,284.3l-16.2,9.4l-16.4-9.4l16.2-9.4L247.8,284.3z"/>
				</g>
			</g>
			<g class="st0">
				<g>
					<path class="st7" d="M268.1,296.1l0,1.8l-16.2,9.4l0-1.8L268.1,296.1z"/>
				</g>
				<g>
					<path class="st5" d="M251.9,305.5l0,1.8l-16.3-9.4l0-1.8L251.9,305.5z"/>
				</g>
				<g>
					<path class="st8" d="M268.1,296.1l-16.2,9.4l-16.3-9.4l16.2-9.4L268.1,296.1z"/>
				</g>
			</g>
			<g class="st0">
				<g>
					<path class="st7" d="M288.5,307.8l0,1.8l-16.2,9.4l0-1.8L288.5,307.8z"/>
				</g>
				<g>
					<path class="st5" d="M272.3,317.3l0,1.8l-16.3-9.4l0-1.8L272.3,317.3z"/>
				</g>
				<g>
					<path class="st8" d="M288.5,307.8l-16.2,9.4l-16.3-9.4l16.2-9.4L288.5,307.8z"/>
				</g>
			</g>
			<g class="st0">
				<g>
					<path class="st7" d="M308.9,319.6l0,1.8l-16.2,9.4l0-1.8L308.9,319.6z"/>
				</g>
				<g>
					<path class="st5" d="M292.6,329l0,1.8l-16.3-9.4l0-1.8L292.6,329z"/>
				</g>
				<g>
					<path class="st8" d="M308.9,319.6l-16.2,9.4l-16.3-9.4l16.2-9.4L308.9,319.6z"/>
				</g>
			</g>
			<g class="st0">
				<g>
					<path class="st7" d="M329.2,331.4l0,1.8l-16.2,9.4l0-1.8L329.2,331.4z"/>
				</g>
				<g>
					<path class="st5" d="M313,340.8l0,1.8l-16.3-9.4l0-1.8L313,340.8z"/>
				</g>
				<g>
					<path class="st8" d="M329.2,331.4l-16.2,9.4l-16.3-9.4l16.2-9.4L329.2,331.4z"/>
				</g>
			</g>
			<g class="st0">
				<g>
					<path class="st7" d="M370,354.9l0,1.8l-16.2,9.4l0-1.8L370,354.9z"/>
				</g>
				<g>
					<path class="st5" d="M353.8,364.3l0,1.8l-36.7-21.2l0-1.8L353.8,364.3z"/>
				</g>
				<g>
					<path class="st8" d="M370,354.9l-16.2,9.4l-36.7-21.2l16.2-9.4L370,354.9z"/>
				</g>
			</g>
			<g class="st0">
				<g>
					<path class="st7" d="M390.4,366.6l0,1.8l-16.2,9.4l0-1.8L390.4,366.6z"/>
				</g>
				<g>
					<path class="st5" d="M374.1,376.1l0,1.8l-16.4-9.4l0-1.8L374.1,376.1z"/>
				</g>
				<g>
					<path class="st8" d="M390.4,366.6l-16.2,9.4l-16.4-9.4l16.2-9.4L390.4,366.6z"/>
				</g>
			</g>
			<g class="st0">
				<g>
					<path class="st7" d="M410.7,378.4l0,1.8l-16.2,9.4l0-1.8L410.7,378.4z"/>
				</g>
				<g>
					<path class="st5" d="M394.5,387.8l0,1.8l-16.3-9.4l0-1.8L394.5,387.8z"/>
				</g>
				<g>
					<path class="st8" d="M410.7,378.4l-16.2,9.4l-16.3-9.4l16.2-9.4L410.7,378.4z"/>
				</g>
			</g>
			<g class="st0">
				<g>
					<path class="st7" d="M431.1,390.2l0,1.8l-16.2,9.4l0-1.8L431.1,390.2z"/>
				</g>
				<g>
					<path class="st5" d="M414.9,399.6l0,1.8l-16.3-9.4l0-1.8L414.9,399.6z"/>
				</g>
				<g>
					<path class="st8" d="M431.1,390.2l-16.2,9.4l-16.3-9.4l16.2-9.4L431.1,390.2z"/>
				</g>
			</g>
			<g class="st0">
				<g>
					<path class="st7" d="M185.9,273l0,1.8l-16.2,9.4l0-1.8L185.9,273z"/>
				</g>
				<g>
					<path class="st5" d="M169.7,282.5l0,1.8l-16.3-9.4l0-1.8L169.7,282.5z"/>
				</g>
				<g>
					<path class="st8" d="M185.9,273l-16.2,9.4l-16.3-9.4l16.2-9.4L185.9,273z"/>
				</g>
			</g>
			<g class="st0">
				<g>
					<path class="st7" d="M206.2,284.8l0,1.8L190,296l0-1.8L206.2,284.8z"/>
				</g>
				<g>
					<path class="st5" d="M190,294.2l0,1.8l-16.3-9.4l0-1.8L190,294.2z"/>
				</g>
				<g>
					<path class="st8" d="M206.2,284.8l-16.2,9.4l-16.3-9.4l16.2-9.4L206.2,284.8z"/>
				</g>
			</g>
			<g class="st0">
				<g>
					<path class="st7" d="M226.6,296.6l0,1.8l-16.2,9.4l0-1.8L226.6,296.6z"/>
				</g>
				<g>
					<path class="st5" d="M210.4,306l0,1.8l-16.4-9.4l0-1.8L210.4,306z"/>
				</g>
				<g>
					<path class="st8" d="M226.6,296.6l-16.2,9.4l-16.4-9.4l16.2-9.4L226.6,296.6z"/>
				</g>
			</g>
			<g class="st0">
				<g>
					<path class="st7" d="M247,308.3l0,1.8l-16.2,9.4l0-1.8L247,308.3z"/>
				</g>
				<g>
					<path class="st5" d="M230.8,317.8l0,1.8l-16.3-9.4l0-1.8L230.8,317.8z"/>
				</g>
				<g>
					<path class="st8" d="M247,308.3l-16.2,9.4l-16.3-9.4l16.2-9.4L247,308.3z"/>
				</g>
			</g>
			<g class="st0">
				<g>
					<path class="st7" d="M267.4,320.1l0,1.8l-16.2,9.4l0-1.8L267.4,320.1z"/>
				</g>
				<g>
					<path class="st5" d="M251.2,329.5l0,1.8l-16.3-9.4l0-1.8L251.2,329.5z"/>
				</g>
				<g>
					<path class="st8" d="M267.4,320.1l-16.2,9.4l-16.3-9.4l16.2-9.4L267.4,320.1z"/>
				</g>
			</g>
			<g class="st0">
				<g>
					<path class="st7" d="M287.7,331.9l0,1.8l-16.2,9.4l0-1.8L287.7,331.9z"/>
				</g>
				<g>
					<path class="st5" d="M271.5,341.3l0,1.8l-16.3-9.4l0-1.8L271.5,341.3z"/>
				</g>
				<g>
					<path class="st8" d="M287.7,331.9l-16.2,9.4l-16.3-9.4l16.2-9.4L287.7,331.9z"/>
				</g>
			</g>
			<g class="st0">
				<g>
					<path class="st7" d="M308.1,343.6l0,1.8l-16.2,9.4l0-1.8L308.1,343.6z"/>
				</g>
				<g>
					<path class="st5" d="M291.9,353l0,1.8l-16.3-9.4l0-1.8L291.9,353z"/>
				</g>
				<g>
					<path class="st8" d="M308.1,343.6l-16.2,9.4l-16.3-9.4l16.2-9.4L308.1,343.6z"/>
				</g>
			</g>
			<g class="st0">
				<g>
					<path class="st7" d="M328.5,355.4l0,1.8l-16.2,9.4l0-1.8L328.5,355.4z"/>
				</g>
				<g>
					<path class="st5" d="M312.3,364.8l0,1.8l-16.3-9.4l0-1.8L312.3,364.8z"/>
				</g>
				<g>
					<path class="st8" d="M328.5,355.4l-16.2,9.4l-16.3-9.4l16.2-9.4L328.5,355.4z"/>
				</g>
			</g>
			<g class="st0">
				<g>
					<path class="st7" d="M348.9,367.2l0,1.8l-16.2,9.4l0-1.8L348.9,367.2z"/>
				</g>
				<g>
					<path class="st5" d="M332.7,376.6l0,1.8l-16.3-9.4l0-1.8L332.7,376.6z"/>
				</g>
				<g>
					<path class="st8" d="M348.9,367.2l-16.2,9.4l-16.3-9.4l16.2-9.4L348.9,367.2z"/>
				</g>
			</g>
			<g class="st0">
				<g>
					<path class="st7" d="M369.2,378.9l0,1.8l-16.2,9.4l0-1.8L369.2,378.9z"/>
				</g>
				<g>
					<path class="st5" d="M353,388.3l0,1.8l-16.4-9.4l0-1.8L353,388.3z"/>
				</g>
				<g>
					<path class="st8" d="M369.2,378.9l-16.2,9.4l-16.4-9.4l16.2-9.4L369.2,378.9z"/>
				</g>
			</g>
			<g class="st0">
				<g>
					<path class="st7" d="M389.6,390.7l0,1.8l-16.2,9.4l0-1.8L389.6,390.7z"/>
				</g>
				<g>
					<path class="st5" d="M373.4,400.1l0,1.8l-16.3-9.4l0-1.8L373.4,400.1z"/>
				</g>
				<g>
					<path class="st8" d="M389.6,390.7l-16.2,9.4l-16.3-9.4l16.2-9.4L389.6,390.7z"/>
				</g>
			</g>
			<g class="st0">
				<g>
					<path class="st7" d="M410,402.4l0,1.8l-16.2,9.4l0-1.8L410,402.4z"/>
				</g>
				<g>
					<path class="st5" d="M393.8,411.9l0,1.8l-16.3-9.4l0-1.8L393.8,411.9z"/>
				</g>
				<g>
					<path class="st8" d="M410,402.4l-16.2,9.4l-16.3-9.4l16.2-9.4L410,402.4z"/>
				</g>
			</g>
			<g class="st0">
				<g>
					<path class="st7" d="M164.8,285.4l0,1.8l-37.3,21.7l0-1.8L164.8,285.4z"/>
				</g>
				<g>
					<path class="st5" d="M127.4,307.1l0,1.8l-16.4-9.4l0-1.8L127.4,307.1z"/>
				</g>
				<g>
					<path class="st8" d="M164.8,285.4l-37.3,21.7l-16.4-9.4l37.3-21.7L164.8,285.4z"/>
				</g>
			</g>
			<g class="st0">
				<g>
					<path class="st7" d="M185.1,297.1l0,1.8l-16.2,9.4l0-1.8L185.1,297.1z"/>
				</g>
				<g>
					<path class="st5" d="M168.9,306.5l0,1.8l-16.3-9.4l0-1.8L168.9,306.5z"/>
				</g>
				<g>
					<path class="st8" d="M185.1,297.1l-16.2,9.4l-16.3-9.4l16.2-9.4L185.1,297.1z"/>
				</g>
			</g>
			<g class="st0">
				<g>
					<path class="st7" d="M205.5,308.9l0,1.8l-16.2,9.4l0-1.8L205.5,308.9z"/>
				</g>
				<g>
					<path class="st5" d="M189.3,318.3l0,1.8l-16.4-9.4l0-1.8L189.3,318.3z"/>
				</g>
				<g>
					<path class="st8" d="M205.5,308.9l-16.2,9.4l-16.4-9.4l16.2-9.4L205.5,308.9z"/>
				</g>
			</g>
			<g class="st0">
				<g>
					<path class="st7" d="M225.8,320.6l0,1.8l-16.2,9.4l0-1.8L225.8,320.6z"/>
				</g>
				<g>
					<path class="st5" d="M209.7,330l0,1.8l-16.3-9.4l0-1.8L209.7,330z"/>
				</g>
				<g>
					<path class="st8" d="M225.8,320.6l-16.2,9.4l-16.3-9.4l16.2-9.4L225.8,320.6z"/>
				</g>
			</g>
			<g class="st0">
				<g>
					<path class="st7" d="M246.2,332.4l0,1.8l-16.2,9.4l0-1.8L246.2,332.4z"/>
				</g>
				<g>
					<path class="st5" d="M230,341.8l0,1.8l-16.3-9.4l0-1.8L230,341.8z"/>
				</g>
				<g>
					<path class="st8" d="M246.2,332.4l-16.2,9.4l-16.3-9.4l16.2-9.4L246.2,332.4z"/>
				</g>
			</g>
			<g class="st0">
				<g>
					<path class="st7" d="M266.6,344.1l0,1.8l-16.2,9.4l0-1.8L266.6,344.1z"/>
				</g>
				<g>
					<path class="st5" d="M250.4,353.6l0,1.8l-16.3-9.4l0-1.8L250.4,353.6z"/>
				</g>
				<g>
					<path class="st8" d="M266.6,344.1l-16.2,9.4l-16.3-9.4l16.2-9.4L266.6,344.1z"/>
				</g>
			</g>
			<g class="st0">
				<g>
					<path class="st7" d="M287,355.9l0,1.8l-16.2,9.4l0-1.8L287,355.9z"/>
				</g>
				<g>
					<path class="st5" d="M270.8,365.3l0,1.8l-16.3-9.4l0-1.8L270.8,365.3z"/>
				</g>
				<g>
					<path class="st8" d="M287,355.9l-16.2,9.4l-16.3-9.4l16.2-9.4L287,355.9z"/>
				</g>
			</g>
			<g class="st0">
				<g>
					<path class="st7" d="M307.3,367.7l0,1.8l-16.2,9.4l0-1.8L307.3,367.7z"/>
				</g>
				<g>
					<path class="st5" d="M291.1,377.1l0,1.8l-16.3-9.4l0-1.8L291.1,377.1z"/>
				</g>
				<g>
					<path class="st8" d="M307.3,367.7l-16.2,9.4l-16.3-9.4l16.2-9.4L307.3,367.7z"/>
				</g>
			</g>
			<g class="st0">
				<g>
					<path class="st7" d="M164,309.4l0,1.8l-16.2,9.4l0-1.8L164,309.4z"/>
				</g>
				<g>
					<path class="st5" d="M147.8,318.8l0,1.8l-16.3-9.4l0-1.8L147.8,318.8z"/>
				</g>
				<g>
					<path class="st8" d="M164,309.4l-16.2,9.4l-16.3-9.4l16.2-9.4L164,309.4z"/>
				</g>
			</g>
			<g class="st0">
				<g>
					<path class="st7" d="M184.4,321.2l0,1.8l-16.2,9.4l0-1.8L184.4,321.2z"/>
				</g>
				<g>
					<path class="st5" d="M168.2,330.6l0,1.8l-16.4-9.4l0-1.8L168.2,330.6z"/>
				</g>
				<g>
					<path class="st8" d="M184.4,321.2l-16.2,9.4l-16.4-9.4l16.2-9.4L184.4,321.2z"/>
				</g>
			</g>
			<g class="st0">
				<g>
					<path class="st7" d="M265.7,368.2l0,1.8l-16.2,9.4l0-1.8L265.7,368.2z"/>
				</g>
				<g>
					<path class="st5" d="M249.6,377.6l0,1.8l-77.4-44.7l0-1.8L249.6,377.6z"/>
				</g>
				<g>
					<path class="st8" d="M265.7,368.2l-16.2,9.4l-77.4-44.7l16.2-9.4L265.7,368.2z"/>
				</g>
			</g>
			<g class="st0">
				<g>
					<path class="st7" d="M286.2,379.9l0,1.8l-16.2,9.4l0-1.8L286.2,379.9z"/>
				</g>
				<g>
					<path class="st5" d="M270,389.4l0,1.8l-16.3-9.4l0-1.8L270,389.4z"/>
				</g>
				<g>
					<path class="st8" d="M286.2,379.9l-16.2,9.4l-16.3-9.4l16.2-9.4L286.2,379.9z"/>
				</g>
			</g>
			<g class="st0">
				<g>
					<path class="st7" d="M327.7,379.4l0,1.8l-37.3,21.7l0-1.8L327.7,379.4z"/>
				</g>
				<g>
					<path class="st5" d="M290.4,401.1l0,1.8l-16.4-9.4l0-1.8L290.4,401.1z"/>
				</g>
				<g>
					<path class="st8" d="M327.7,379.4l-37.3,21.7l-16.4-9.4l37.3-21.7L327.7,379.4z"/>
				</g>
			</g>
			<g class="st0">
				<g>
					<path class="st7" d="M348.1,391.2l0,1.8l-16.2,9.4l0-1.8L348.1,391.2z"/>
				</g>
				<g>
					<path class="st5" d="M331.9,400.6l0,1.8l-16.4-9.4l0-1.8L331.9,400.6z"/>
				</g>
				<g>
					<path class="st8" d="M348.1,391.2l-16.2,9.4l-16.4-9.4l16.2-9.4L348.1,391.2z"/>
				</g>
			</g>
			<g class="st0">
				<g>
					<path class="st7" d="M368.5,403l0,1.8l-16.2,9.4l0-1.8L368.5,403z"/>
				</g>
				<g>
					<path class="st5" d="M352.3,412.4l0,1.8l-16.3-9.4l0-1.8L352.3,412.4z"/>
				</g>
				<g>
					<path class="st8" d="M368.5,403l-16.2,9.4l-16.3-9.4l16.2-9.4L368.5,403z"/>
				</g>
			</g>
			<g class="st0">
				<g>
					<path class="st7" d="M327,403.5l0,1.8l-16.2,9.4l0-1.8L327,403.5z"/>
				</g>
				<g>
					<path class="st5" d="M310.8,412.9l0,1.8l-16.4-9.4l0-1.8L310.8,412.9z"/>
				</g>
				<g>
					<path class="st8" d="M327,403.5l-16.2,9.4l-16.4-9.4l16.2-9.4L327,403.5z"/>
				</g>
			</g>
			<g class="st0">
				<g>
					<path class="st7" d="M347.3,415.2l0,1.8l-16.2,9.4l0-1.8L347.3,415.2z"/>
				</g>
				<g>
					<path class="st5" d="M331.1,424.7l0,1.8l-16.3-9.4l0-1.8L331.1,424.7z"/>
				</g>
				<g>
					<path class="st8" d="M347.3,415.2l-16.2,9.4l-16.3-9.4l16.2-9.4L347.3,415.2z"/>
				</g>
			</g>
			<g class="st0">
				<g>
					<path class="st7" d="M388.8,414.7l0,1.8l-37.3,21.7l0-1.8L388.8,414.7z"/>
				</g>
				<g>
					<path class="st5" d="M351.5,436.4l0,1.8l-16.4-9.4l0-1.8L351.5,436.4z"/>
				</g>
				<g>
					<path class="st8" d="M388.8,414.7l-37.3,21.7l-16.4-9.4l37.3-21.7L388.8,414.7z"/>
				</g>
			</g>
		</g>
		<g>
			<path class="st3" d="M142.8,377.5l34.8-20.3c1.3-0.7,2.8-0.7,4.1,0l70,40.4c1,0.6,1.3,1.7,0.8,2.6c-0.1-0.5-0.3-0.8-0.8-1.1
				l-70-40.4c-1.3-0.7-2.8-0.7-4.1,0l-34.8,20.2c-0.4,0.2-0.6,0.5-0.8,0.9C141.6,379,141.9,378,142.8,377.5z"/>
			<path class="st9" d="M177.5,358.7c1.3-0.7,2.8-0.7,4.1,0l70,40.4c0.5,0.3,0.7,0.6,0.8,1.1c-0.1,0.4-0.4,0.8-0.8,1l-34.8,20.3
				c-1.2,0.7-2.8,0.7-4,0l-70-40.4c-0.5-0.3-0.9-0.8-0.9-1.3c0.2-0.4,0.4-0.7,0.8-0.9L177.5,358.7z"/>
		</g>
	</g>
	<path class="st10" d="M203.3,53.1l0-12.7l62.4,36.1l-0.1,12.6L203.3,53.1z"/>
	<path class="st11" d="M203.3,126.6l0-66.5l240.2,138.7l-0.1,66.5L203.3,126.6z"/>
	<path class="st12" d="M203.3,189.7l0-58.4l74.1,43.2l0,58.4L203.3,189.7z"/>
	<g>
		<g>
			<path class="st1" d="M203.3,198.5l0-2.3l74.1,43.2l0,2.3L203.3,198.5z"/>
			<path class="st1" d="M203.3,205.3l0-2.3l74.1,43.2l0,2.3L203.3,205.3z"/>
			<path class="st1" d="M203.3,212.2l0-2.3l37.1,21.6l0,2.3L203.3,212.2z"/>
		</g>
		<g>
			<path class="st1" d="M286.1,246.4l0-2.3l74.1,43.2l0,2.3L286.1,246.4z"/>
			<path class="st1" d="M286.1,253.2l0-2.3l74.1,43.2l0,2.3L286.1,253.2z"/>
			<path class="st1" d="M286.1,260.1l0-2.3l37.1,21.6l0,2.3L286.1,260.1z"/>
		</g>
		<g>
			<path class="st1" d="M369,294.2l0-2.3l74.1,43.2l0,2.3L369,294.2z"/>
			<path class="st1" d="M369,301.1l0-2.3l74.1,43.2l0,2.3L369,301.1z"/>
			<path class="st1" d="M369,308l0-2.3l37.1,21.6l0,2.3L369,308z"/>
		</g>
	</g>
	<path class="st13" d="M286.1,238.4l0-58.4l74.1,43.2l0,58.4L286.1,238.4z"/>
	<path class="st14" d="M369,287l0-58.4l74.1,43.2l0,58.4L369,287z"/>
</g>
</svg>
