<?xml version="1.0" encoding="utf-8"?>
<!-- Generator: Adobe Illustrator 24.0.3, SVG Export Plug-In . SVG Version: 6.00 Build 0)  -->
<svg version="1.1" id="Capa_1" xmlns="http://www.w3.org/2000/svg" xmlns:xlink="http://www.w3.org/1999/xlink" x="0px" y="0px"
	 viewBox="0 0 512 512" style="enable-background:new 0 0 512 512;" xml:space="preserve">
<style type="text/css">
	.st0{fill:#EFEFEF;}
	.st1{fill:#DDDDDD;}
	.st2{fill:#535454;}
	.st3{fill:#444443;}
	.st4{fill:#A4D9F4;}
	.st5{fill:#7CC9E8;}
	.st6{fill:#666666;}
	.st7{fill:#F9D698;}
	.st8{fill:#70B5E8;}
	.st9{fill:#92B620;}
	.st10{fill:#898989;}
	.st11{fill:#F94A46;}
	.st12{fill:#DDA36F;}
	.st13{fill:#FFB70D;}
</style>
<path class="st0" d="M97.2,0C70.8,0,49.3,21.5,49.3,47.9v416.2c0,26.4,21.5,47.9,47.9,47.9H235V0H97.2z"/>
<path class="st1" d="M77.8,464.1V47.9C77.8,21.5,99.3,0,125.7,0H97.2C70.8,0,49.3,21.5,49.3,47.9v416.2c0,26.4,21.5,47.9,47.9,47.9
	h28.5C99.3,512,77.8,490.5,77.8,464.1z"/>
<path class="st2" d="M102.1,26.7L102.1,26.7c-13.3,0-24.2,10.9-24.2,24.2v56.7c0,13.3,10.9,24.2,24.2,24.2l0,0
	c13.3,0,24.2-10.9,24.2-24.2V50.9C126.3,37.6,115.4,26.7,102.1,26.7z"/>
<path class="st3" d="M102.1,107.6V50.9c0-8.9,4.9-16.7,12.1-20.9c-16.1-9.4-36.3,2.4-36.3,20.9v56.7c0,18.5,20.2,30.3,36.3,20.9
	C106.9,124.3,102.1,116.5,102.1,107.6z"/>
<path class="st2" d="M414.8,0H235c-26.4,0-47.9,21.5-47.9,47.9v416.2c0,26.4,21.5,47.9,47.9,47.9h179.8c26.4,0,47.9-21.5,47.9-47.9
	V47.9C462.7,21.5,441.2,0,414.8,0z"/>
<path class="st3" d="M213.6,464.1V47.9c0-26.4,21.5-47.9,47.9-47.9H235c-26.4,0-47.9,21.5-47.9,47.9v416.2
	c0,26.4,21.5,47.9,47.9,47.9h26.5C235.1,512,213.6,490.5,213.6,464.1z"/>
<path class="st4" d="M436.1,464.1c0,11.8-9.6,21.4-21.4,21.4H235c-11.8,0-21.4-9.6-21.4-21.4V47.9c0-11.8,9.6-21.4,21.4-21.4h22.4
	c4.4,0,8,3.6,8,8v5.1c0,6.8,5.6,12.4,12.4,12.4H372c6.8,0,12.4-5.6,12.4-12.4v-7.3c0-3.2,2.6-5.7,5.7-5.7h24.7
	c11.8,0,21.4,9.6,21.4,21.4V464.1z"/>
<path class="st5" d="M239.1,464.1V47.9c0-11.2,8.6-20.3,19.5-21.3c-1.2-0.2,0.1-0.1-23.6-0.1c-11.8,0-21.4,9.6-21.4,21.4v416.2
	c0,11.8,9.6,21.4,21.4,21.4h25.5C248.7,485.5,239.1,475.9,239.1,464.1z"/>
<g>
	<path class="st6" d="M356,34.3h-40.3c-4.3,0-7.7-3.5-7.7-7.7s3.5-7.7,7.7-7.7H356c4.3,0,7.7,3.5,7.7,7.7
		C363.7,30.8,360.3,34.3,356,34.3z"/>
	<path class="st6" d="M287.1,33c-5.5-3.6-4.2-12.5,2.8-14c4.7-1,9.2,2.7,9.2,7.6c0,3.6-2.5,6.8-6.2,7.6
		C292.4,34.2,288.6,34,287.1,33z"/>
	<path class="st6" d="M97.8,58.4c-3.7-2.5-4.4-7.3-2.1-10.7c4.1-6.2,14.1-3.5,14.1,4.3c0,3.7-2.7,6.9-6.2,7.6
		C102.6,59.7,99.6,59.6,97.8,58.4z"/>
</g>
<path class="st7" d="M97.8,85.7c-3.7-2.5-4.4-7.3-2.1-10.7c3.2-5,11.1-4.5,13.6,1.3c1.2,2.8,0.6,6.2-1.7,8.4
	C105.7,86.6,100.9,87.8,97.8,85.7z"/>
<path class="st6" d="M97.8,113c-5.1-3.4-4.4-11.1,1.3-13.6c8.1-3.2,14.2,6.8,8.4,12.6C105.5,114,101.2,115.3,97.8,113z"/>
<path class="st8" d="M263.4,114.2h-20.7c-1.9,0-3.4-1.6-3.4-3.4V90c0-1.9,1.6-3.4,3.4-3.4h20.7c1.9,0,3.4,1.6,3.4,3.4v20.7
	C266.8,112.6,265.3,114.2,263.4,114.2z"/>
<path class="st0" d="M312,114.2h-20.7c-1.9,0-3.4-1.6-3.4-3.4V90c0-1.9,1.6-3.4,3.4-3.4H312c1.9,0,3.4,1.6,3.4,3.4v20.7
	C315.5,112.6,313.9,114.2,312,114.2z"/>
<path class="st9" d="M360.7,114.2H340c-1.9,0-3.4-1.6-3.4-3.4V90c0-1.9,1.6-3.4,3.4-3.4h20.7c1.9,0,3.4,1.6,3.4,3.4v20.7
	C364.2,112.6,362.6,114.2,360.7,114.2z"/>
<path class="st10" d="M409.4,114.2h-20.7c-1.9,0-3.4-1.6-3.4-3.4V90c0-1.9,1.6-3.4,3.4-3.4h20.7c1.9,0,3.4,1.6,3.4,3.4v20.7
	C412.8,112.6,411.3,114.2,409.4,114.2z"/>
<path class="st9" d="M263.4,163.3h-20.7c-1.9,0-3.4-1.6-3.4-3.4v-20.7c0-1.9,1.6-3.4,3.4-3.4h20.7c1.9,0,3.4,1.6,3.4,3.4v20.7
	C266.8,161.8,265.3,163.3,263.4,163.3z"/>
<path class="st10" d="M312,163.3h-20.7c-1.9,0-3.4-1.6-3.4-3.4v-20.7c0-1.9,1.6-3.4,3.4-3.4H312c1.9,0,3.4,1.6,3.4,3.4v20.7
	C315.5,161.8,313.9,163.3,312,163.3z"/>
<path class="st8" d="M360.7,163.3H340c-1.9,0-3.4-1.6-3.4-3.4v-20.7c0-1.9,1.6-3.4,3.4-3.4h20.7c1.9,0,3.4,1.6,3.4,3.4v20.7
	C364.2,161.8,362.6,163.3,360.7,163.3z"/>
<path class="st11" d="M409.4,163.3h-20.7c-1.9,0-3.4-1.6-3.4-3.4v-20.7c0-1.9,1.6-3.4,3.4-3.4h20.7c1.9,0,3.4,1.6,3.4,3.4v20.7
	C412.8,161.8,411.3,163.3,409.4,163.3z"/>
<path class="st12" d="M263.4,213.1h-20.7c-1.9,0-3.4-1.6-3.4-3.4V189c0-1.9,1.6-3.4,3.4-3.4h20.7c1.9,0,3.4,1.6,3.4,3.4v20.7
	C266.8,211.6,265.3,213.1,263.4,213.1z"/>
<path class="st7" d="M312,213.1h-20.7c-1.9,0-3.4-1.6-3.4-3.4V189c0-1.9,1.6-3.4,3.4-3.4H312c1.9,0,3.4,1.6,3.4,3.4v20.7
	C315.5,211.6,313.9,213.1,312,213.1z"/>
<path class="st10" d="M360.7,213.1H340c-1.9,0-3.4-1.6-3.4-3.4V189c0-1.9,1.6-3.4,3.4-3.4h20.7c1.9,0,3.4,1.6,3.4,3.4v20.7
	C364.2,211.6,362.6,213.1,360.7,213.1z"/>
<path class="st7" d="M409.4,213.1h-20.7c-1.9,0-3.4-1.6-3.4-3.4V189c0-1.9,1.6-3.4,3.4-3.4h20.7c1.9,0,3.4,1.6,3.4,3.4v20.7
	C412.8,211.6,411.3,213.1,409.4,213.1z"/>
<g>
	<path class="st8" d="M263.4,262.3h-20.7c-1.9,0-3.4-1.6-3.4-3.4v-20.7c0-1.9,1.6-3.4,3.4-3.4h20.7c1.9,0,3.4,1.6,3.4,3.4v20.7
		C266.8,260.7,265.3,262.3,263.4,262.3z"/>
	<path class="st8" d="M312,262.3h-20.7c-1.9,0-3.4-1.6-3.4-3.4v-20.7c0-1.9,1.6-3.4,3.4-3.4H312c1.9,0,3.4,1.6,3.4,3.4v20.7
		C315.5,260.7,313.9,262.3,312,262.3z"/>
</g>
<path class="st11" d="M360.7,262.3H340c-1.9,0-3.4-1.6-3.4-3.4v-20.7c0-1.9,1.6-3.4,3.4-3.4h20.7c1.9,0,3.4,1.6,3.4,3.4v20.7
	C364.2,260.7,362.6,262.3,360.7,262.3z"/>
<path class="st0" d="M263.4,311.4h-20.7c-1.9,0-3.4-1.6-3.4-3.4v-20.7c0-1.9,1.6-3.4,3.4-3.4h20.7c1.9,0,3.4,1.6,3.4,3.4V308
	C266.8,309.9,265.3,311.4,263.4,311.4z"/>
<path class="st9" d="M312,311.4h-20.7c-1.9,0-3.4-1.6-3.4-3.4v-20.7c0-1.9,1.6-3.4,3.4-3.4H312c1.9,0,3.4,1.6,3.4,3.4V308
	C315.5,309.9,313.9,311.4,312,311.4z"/>
<path class="st10" d="M360.7,311.4H340c-1.9,0-3.4-1.6-3.4-3.4v-20.7c0-1.9,1.6-3.4,3.4-3.4h20.7c1.9,0,3.4,1.6,3.4,3.4V308
	C364.2,309.9,362.6,311.4,360.7,311.4z"/>
<path class="st13" d="M409.4,262.3h-20.7c-1.9,0-3.4-1.6-3.4-3.4v-20.7c0-1.9,1.6-3.4,3.4-3.4h20.7c1.9,0,3.4,1.6,3.4,3.4v20.7
	C412.8,260.7,411.3,262.3,409.4,262.3z"/>
<path class="st9" d="M263.4,463.1h-20.7c-1.9,0-3.4-1.6-3.4-3.4V439c0-1.9,1.6-3.4,3.4-3.4h20.7c1.9,0,3.4,1.6,3.4,3.4v20.7
	C266.8,461.5,265.3,463.1,263.4,463.1z"/>
<path class="st8" d="M312,463.1h-20.7c-1.9,0-3.4-1.6-3.4-3.4V439c0-1.9,1.6-3.4,3.4-3.4H312c1.9,0,3.4,1.6,3.4,3.4v20.7
	C315.5,461.5,313.9,463.1,312,463.1z"/>
<path class="st9" d="M360.7,463.1H340c-1.9,0-3.4-1.6-3.4-3.4V439c0-1.9,1.6-3.4,3.4-3.4h20.7c1.9,0,3.4,1.6,3.4,3.4v20.7
	C364.2,461.5,362.6,463.1,360.7,463.1z"/>
<path class="st0" d="M409.4,463.1h-20.7c-1.9,0-3.4-1.6-3.4-3.4V439c0-1.9,1.6-3.4,3.4-3.4h20.7c1.9,0,3.4,1.6,3.4,3.4v20.7
	C412.8,461.5,411.3,463.1,409.4,463.1z"/>
</svg>
