<?xml version="1.0" encoding="utf-8"?>
<!-- Generator: Adobe Illustrator 24.0.3, SVG Export Plug-In . SVG Version: 6.00 Build 0)  -->
<svg version="1.1" id="Layer_1" xmlns="http://www.w3.org/2000/svg" xmlns:xlink="http://www.w3.org/1999/xlink" x="0px" y="0px"
	 viewBox="0 0 512 512" style="enable-background:new 0 0 512 512;" xml:space="preserve">
<style type="text/css">
	.st0{fill:#90BAE1;}
	.st1{fill:#BDC3C7;}
	.st2{fill:#2C3E50;}
	.st3{fill:#4482C3;}
	.st4{fill:#285680;}
	.st5{fill:#CC4B4C;}
	.st6{fill:#4FBA6F;}
</style>
<title>004 - Printer</title>
<desc>Created with Sketch.</desc>
<g id="Page-1">
	<g id="_x30_04---Printer">
		<path id="Shape" class="st0" d="M158.9,105.9h-51.1c-12.4,0-24.3,5.2-32.7,14.5L0,203l250.1,26.5L512,203l-75.1-82.7
			c-8.4-9.2-20.2-14.5-32.7-14.5h-51.1"/>
		<path id="Shape_1_" class="st1" d="M167.7,0h176.6c4.9,0,8.8,4,8.8,8.8v150.1H158.9V8.8C158.9,4,162.8,0,167.7,0z"/>
		<path id="Shape_2_" class="st2" d="M370.8,167.7H141.2c-4.9,0-8.8-4-8.8-8.8s4-8.8,8.8-8.8h229.5c4.9,0,8.8,4,8.8,8.8
			S375.6,167.7,370.8,167.7z"/>
		<path id="Shape_3_" d="M326.6,423.7H185.4c-4.9,0-8.8-4-8.8-8.8s4-8.8,8.8-8.8h141.2c4.9,0,8.8,4,8.8,8.8S331.5,423.7,326.6,423.7
			z"/>
		<path id="Shape_4_" class="st3" d="M388.4,414.9h79.4c11.7,0,22.9-4.7,31.2-12.9c8.3-8.3,12.9-19.5,12.9-31.2V203H0v167.7
			c0,11.7,4.7,22.9,12.9,31.2c8.3,8.3,19.5,12.9,31.2,12.9h79.4"/>
		<path id="Shape_5_" class="st2" d="M123.6,414.9h-8.8v-79.4c0-39,31.6-70.6,70.6-70.6h141.2c39,0,70.6,31.6,70.6,70.6v79.4h-8.8"
			/>
		<path id="Shape_6_" d="M326.6,423.7H185.4c-4.9,0-8.8-4-8.8-8.8s4-8.8,8.8-8.8h141.2c4.9,0,8.8,4,8.8,8.8S331.5,423.7,326.6,423.7
			z"/>
		<circle id="Oval" class="st4" cx="459" cy="264.8" r="17.7"/>
		<circle id="Oval_1_" class="st5" cx="459" cy="317.8" r="8.8"/>
		<circle id="Oval_2_" class="st6" cx="459" cy="344.3" r="8.8"/>
		<circle id="Oval_3_" class="st6" cx="459" cy="370.8" r="8.8"/>
		<path id="Shape_7_" class="st4" d="M167.7,344.3h176.6c9.8,0,17.7,7.9,17.7,17.7v35.3H150.1v-35.3
			C150.1,352.2,158,344.3,167.7,344.3z"/>
		<path id="Shape_8_" class="st0" d="M35.3,256c-4.9,0-8.8-4-8.8-8.8v-8.8c0-4.9,4-8.8,8.8-8.8s8.8,4,8.8,8.8v8.8
			C44.1,252,40.2,256,35.3,256z"/>
		<path id="Shape_9_" class="st0" d="M35.3,344.3c-4.9,0-8.8-4-8.8-8.8v-53c0-4.9,4-8.8,8.8-8.8s8.8,4,8.8,8.8v53
			C44.1,340.3,40.2,344.3,35.3,344.3z"/>
		<path id="Shape_10_" class="st3" d="M358.8,485.5h65c3.3,0,6.4-1.9,7.9-4.9c1.5-3,1.2-6.6-0.8-9.2l-42.4-56.5l-26.5-35.3H150.1
			l-26.5,35.3l-42.4,56.5c-2,2.7-2.3,6.3-0.8,9.2c1.5,3,4.6,4.9,7.9,4.9h65"/>
		<path id="Shape_11_" class="st1" d="M357,512H155c-3,0-5.8-1.5-7.4-4.1c-1.6-2.5-1.9-5.7-0.6-8.4l36.1-79.4c1.4-3.1,4.6-5.2,8-5.2
			h129.9c3.5,0,6.6,2,8,5.2l36.1,79.4c1.2,2.7,1,5.9-0.6,8.4C362.8,510.5,360.1,512,357,512z"/>
		<path id="Shape_12_" class="st2" d="M291.3,459h-70.6c-4.9,0-8.8-4-8.8-8.8c0-4.9,4-8.8,8.8-8.8h70.6c4.9,0,8.8,4,8.8,8.8
			C300.1,455.1,296.2,459,291.3,459z"/>
		<path id="Shape_13_" class="st2" d="M309,485.5H203c-4.9,0-8.8-4-8.8-8.8s4-8.8,8.8-8.8H309c4.9,0,8.8,4,8.8,8.8
			S313.8,485.5,309,485.5z"/>
	</g>
</g>
</svg>
