<?xml version="1.0" encoding="utf-8"?>
<!-- Generator: Adobe Illustrator 24.0.3, SVG Export Plug-In . SVG Version: 6.00 Build 0)  -->
<svg version="1.1" id="Layer_1" xmlns="http://www.w3.org/2000/svg" xmlns:xlink="http://www.w3.org/1999/xlink" x="0px" y="0px"
	 viewBox="0 0 512 512" style="enable-background:new 0 0 512 512;" xml:space="preserve">
<style type="text/css">
	.st0{fill:#808285;}
	.st1{fill:#939598;}
	.st2{fill:#58595B;}
	.st3{fill:#414042;}
	.st4{fill:#D1D3D4;}
	.st5{fill:#377DE2;}
	.st6{fill:#5E9CF7;}
	.st7{fill:#2266D3;}
	.st8{fill:#E6E7E8;}
</style>
<g>
	<g>
		<g>
			<path class="st0" d="M476,443.9H36c-11,0-20-9-20-20V141.5c0-11,9-20,20-20h440c11,0,20,9,20,20v282.4
				C496,435,487,443.9,476,443.9z"/>
		</g>
		<g>
			<path class="st1" d="M210.7,137.5H210c-2.2,0-4-1.8-4-4s1.8-4,4-4h0.7c2.2,0,4,1.8,4,4S212.9,137.5,210.7,137.5z M194,137.5H56
				c-2.2,0-4-1.8-4-4s1.8-4,4-4h138c2.2,0,4,1.8,4,4S196.2,137.5,194,137.5z"/>
		</g>
		<g>
			<path class="st2" d="M476,121.5v282.4c0,11-9,20-20,20H16c0,11,9,20,20,20h440c11,0,20-9,20-20V141.5
				C496,130.5,487,121.5,476,121.5z"/>
		</g>
		<g>
			<path class="st3" d="M484.2,123.3c1.1,2.5,1.8,5.3,1.8,8.2v282.4c0,11-9,20-20,20H26c-2.9,0-5.7-0.6-8.2-1.8
				c3.1,6.9,10.1,11.8,18.2,11.8h440c11,0,20-9,20-20V141.5C496,133.4,491.2,126.5,484.2,123.3L484.2,123.3z"/>
		</g>
		<g>
			<g>
				<path class="st1" d="M156.8,443.9H83v22c0,5.5,4.5,10,10,10h53.8c5.5,0,10-4.5,10-10V443.9z"/>
			</g>
			<g>
				<path class="st0" d="M146.8,443.9v12c0,5.5-4.5,10-10,10H83c0,5.5,4.5,10,10,10h53.8c5.5,0,10-4.5,10-10v-22H146.8z"/>
			</g>
			<g>
				<path class="st1" d="M429,443.9h-73.8v22c0,5.5,4.5,10,10,10H419c5.5,0,10-4.5,10-10L429,443.9z"/>
			</g>
			<g>
				<path class="st0" d="M419,443.9v12c0,5.5-4.5,10-10,10h-53.8c0,5.5,4.5,10,10,10H419c5.5,0,10-4.5,10-10v-22H419z"/>
			</g>
		</g>
		<g>
			<path class="st3" d="M339.1,403.7H60.6c-11,0-20-9-20-20V181.8c0-11,9-20,20-20h278.5c11,0,20,9,20,20v201.9
				C359.1,394.7,350.1,403.7,339.1,403.7L339.1,403.7z"/>
		</g>
		<g>
			<path class="st4" d="M331.5,383.7c-4.2,0-7.5-3.4-7.5-7.5V189.3c0-4.2,3.4-7.5,7.5-7.5c4.2,0,7.5,3.4,7.5,7.5v186.8
				C339.1,380.3,335.7,383.7,331.5,383.7z"/>
		</g>
		<g>
			<path class="st5" d="M289.1,383.7H80.6c-11,0-20-9-20-20V201.8c0-11,9-20,20-20h208.5c11,0,20,9,20,20v161.9
				C309.1,374.7,300.1,383.7,289.1,383.7L289.1,383.7z"/>
		</g>
		<g>
			<g>
				<path class="st6" d="M162.2,383.7h29.3l72.8-201.9H235L162.2,383.7z"/>
			</g>
			<g>
				<path class="st6" d="M206.2,383.7h49.3L309.1,235v-33.2c0-11-9-20-20-20H279L206.2,383.7z"/>
			</g>
			<g>
				<path class="st6" d="M204.3,181.8H135L64.9,376.1c3.7,4.6,9.3,7.6,15.7,7.6h50.9L204.3,181.8z"/>
			</g>
		</g>
		<g>
			<g>
				<path class="st5" d="M449,233.4h-55.6c-5.5,0-10-4.5-10-10v-41.6c0-5.5,4.5-10,10-10H449c5.5,0,10,4.5,10,10v41.6
					C459,228.9,454.6,233.4,449,233.4z"/>
			</g>
			<g>
				<path class="st7" d="M449,171.8v41.6c0,5.5-4.5,10-10,10h-55.6c0,5.5,4.5,10,10,10H449c5.5,0,10-4.5,10-10v-41.6
					C459,176.3,454.6,171.8,449,171.8z"/>
			</g>
			<g>
				<g>
					<g>
						<path class="st4" d="M394.6,269.7h-6.7c-3.2,0-5.8-2.6-5.8-5.8s2.6-5.8,5.8-5.8h6.7c3.2,0,5.8,2.6,5.8,5.8
							C400.4,267.2,397.8,269.7,394.6,269.7z"/>
					</g>
					<g>
						<path class="st4" d="M424.6,269.7h-6.7c-3.2,0-5.8-2.6-5.8-5.8s2.6-5.8,5.8-5.8h6.7c3.2,0,5.8,2.6,5.8,5.8
							C430.4,267.2,427.8,269.7,424.6,269.7z"/>
					</g>
					<g>
						<path class="st4" d="M454.6,269.7h-6.7c-3.2,0-5.8-2.6-5.8-5.8s2.6-5.8,5.8-5.8h6.7c3.2,0,5.8,2.6,5.8,5.8
							C460.4,267.2,457.8,269.7,454.6,269.7z"/>
					</g>
				</g>
				<g>
					<g>
						<path class="st4" d="M394.6,289.7h-6.7c-3.2,0-5.8-2.6-5.8-5.8s2.6-5.8,5.8-5.8h6.7c3.2,0,5.8,2.6,5.8,5.8
							C400.4,287.2,397.8,289.7,394.6,289.7z"/>
					</g>
					<g>
						<path class="st4" d="M424.6,289.7h-6.7c-3.2,0-5.8-2.6-5.8-5.8s2.6-5.8,5.8-5.8h6.7c3.2,0,5.8,2.6,5.8,5.8
							C430.4,287.2,427.8,289.7,424.6,289.7z"/>
					</g>
					<g>
						<path class="st4" d="M454.6,289.7h-6.7c-3.2,0-5.8-2.6-5.8-5.8s2.6-5.8,5.8-5.8h6.7c3.2,0,5.8,2.6,5.8,5.8
							C460.4,287.2,457.8,289.7,454.6,289.7z"/>
					</g>
				</g>
				<g>
					<g>
						<path class="st4" d="M394.6,309.7h-6.7c-3.2,0-5.8-2.6-5.8-5.8s2.6-5.8,5.8-5.8h6.7c3.2,0,5.8,2.6,5.8,5.8
							C400.4,307.2,397.8,309.7,394.6,309.7z"/>
					</g>
					<g>
						<path class="st4" d="M424.6,309.7h-6.7c-3.2,0-5.8-2.6-5.8-5.8s2.6-5.8,5.8-5.8h6.7c3.2,0,5.8,2.6,5.8,5.8
							C430.4,307.2,427.8,309.7,424.6,309.7z"/>
					</g>
					<g>
						<path class="st4" d="M454.6,309.7h-6.7c-3.2,0-5.8-2.6-5.8-5.8s2.6-5.8,5.8-5.8h6.7c3.2,0,5.8,2.6,5.8,5.8
							C460.4,307.2,457.8,309.7,454.6,309.7z"/>
					</g>
				</g>
			</g>
			<g>
				<circle class="st8" cx="421.2" cy="364.5" r="29.2"/>
			</g>
			<g>
				<path class="st4" d="M439.8,342c4.1,5,6.6,11.5,6.6,18.5c0,16.1-13.1,29.2-29.2,29.2c-7,0-13.5-2.5-18.5-6.6
					c5.4,6.5,13.5,10.6,22.5,10.6c16.1,0,29.2-13.1,29.2-29.2C450.4,355.4,446.3,347.3,439.8,342L439.8,342z"/>
			</g>
			<g>
				<circle class="st4" cx="421.2" cy="364.5" r="15.1"/>
			</g>
		</g>
	</g>
	<g>
		<g>
			<path class="st7" d="M96,106.4c-1.2,0-2.3-0.5-3.1-1.5c-1.4-1.7-1.1-4.2,0.6-5.6c4.1-3.3,6.5-8.2,6.5-13.5
				c0-5.3-2.4-10.2-6.5-13.5c-6-4.8-9.5-12-9.5-19.7c0-7.7,3.5-14.9,9.5-19.7c1.7-1.4,4.2-1.1,5.6,0.6c1.4,1.7,1.1,4.2-0.6,5.6
				c-4.1,3.3-6.5,8.2-6.5,13.5s2.4,10.2,6.5,13.5c6,4.8,9.5,12,9.5,19.7c0,7.7-3.5,14.9-9.5,19.7C97.7,106.1,96.9,106.4,96,106.4z"
				/>
		</g>
		<g>
			<path class="st7" d="M176,106.4c-1.2,0-2.3-0.5-3.1-1.5c-1.4-1.7-1.1-4.2,0.6-5.6c4.1-3.3,6.5-8.2,6.5-13.5
				c0-5.3-2.4-10.2-6.5-13.5c-6-4.8-9.5-12-9.5-19.7c0-7.7,3.5-14.9,9.5-19.7c1.7-1.4,4.2-1.1,5.6,0.6c1.4,1.7,1.1,4.2-0.6,5.6
				c-4.1,3.3-6.5,8.2-6.5,13.5s2.4,10.2,6.5,13.5c6,4.8,9.5,12,9.5,19.7c0,7.7-3.5,14.9-9.5,19.7C177.7,106.1,176.9,106.4,176,106.4
				L176,106.4z"/>
		</g>
		<g>
			<path class="st7" d="M256,106.4c-1.2,0-2.3-0.5-3.1-1.5c-1.4-1.7-1.1-4.2,0.6-5.6c4.1-3.3,6.5-8.2,6.5-13.5
				c0-5.3-2.4-10.2-6.5-13.5c-6-4.8-9.5-12-9.5-19.7c0-7.7,3.5-14.9,9.5-19.7c1.7-1.4,4.2-1.1,5.6,0.6c1.4,1.7,1.1,4.2-0.6,5.6
				c-4.1,3.3-6.5,8.2-6.5,13.5s2.4,10.2,6.5,13.5c6,4.8,9.5,12,9.5,19.7c0,7.7-3.5,14.9-9.5,19.7C257.7,106.1,256.9,106.4,256,106.4
				L256,106.4z"/>
		</g>
		<g>
			<path class="st7" d="M336,106.4c-1.2,0-2.3-0.5-3.1-1.5c-1.4-1.7-1.1-4.2,0.6-5.6c4.1-3.3,6.5-8.2,6.5-13.5
				c0-5.3-2.4-10.2-6.5-13.5c-6-4.8-9.5-12-9.5-19.7c0-7.7,3.5-14.9,9.5-19.7c1.7-1.4,4.2-1.1,5.6,0.6c1.4,1.7,1.1,4.2-0.6,5.6
				c-4.1,3.3-6.5,8.2-6.5,13.5s2.4,10.2,6.5,13.5c6,4.8,9.5,12,9.5,19.7c0,7.7-3.5,14.9-9.5,19.7C337.7,106.1,336.9,106.4,336,106.4
				L336,106.4z"/>
		</g>
		<g>
			<path class="st7" d="M416,106.4c-1.2,0-2.3-0.5-3.1-1.5c-1.4-1.7-1.1-4.2,0.6-5.6c4.1-3.3,6.5-8.2,6.5-13.5
				c0-5.3-2.4-10.2-6.5-13.5c-6-4.8-9.5-12-9.5-19.7c0-7.7,3.5-14.9,9.5-19.7c1.7-1.4,4.2-1.1,5.6,0.6c1.4,1.7,1.1,4.2-0.6,5.6
				c-4.1,3.3-6.5,8.2-6.5,13.5s2.4,10.2,6.5,13.5c6,4.8,9.5,12,9.5,19.7c0,7.7-3.5,14.9-9.5,19.7C417.7,106.1,416.9,106.4,416,106.4
				L416,106.4z"/>
		</g>
	</g>
</g>
</svg>
