<?xml version="1.0" encoding="utf-8"?>
<!-- Generator: Adobe Illustrator 24.0.3, SVG Export Plug-In . SVG Version: 6.00 Build 0)  -->
<svg version="1.1" id="Layer_1" xmlns="http://www.w3.org/2000/svg" xmlns:xlink="http://www.w3.org/1999/xlink" x="0px" y="0px"
	 viewBox="0 0 512 512" style="enable-background:new 0 0 512 512;" xml:space="preserve">
<style type="text/css">
	.st0{fill:#34678C;}
	.st1{fill:#568AB1;}
	.st2{fill:#4173A0;}
	.st3{fill:#C8E7E5;}
	.st4{fill:#52D6FF;}
	.st5{fill:#31A7FF;}
	.st6{fill:#1C7FF6;}
	.st7{fill:#A9C6C4;}
</style>
<g id="XMLID_654_">
	<path id="XMLID_2152_" class="st0" d="M461.8,475.5c0,1.8-0.2,3.6-0.5,5.3c-1.1,5.8-3.9,11-7.9,15c-5.2,5.2-12.4,8.4-20.3,8.4H68.7
		c-15.8,0-28.6-12.8-28.6-28.6c0-7.9,3.2-15.1,8.4-20.3c5.2-5.2,12.4-8.4,20.3-8.4h364.4c14,0,25.7,10.1,28.2,23.4
		C461.6,472,461.8,473.7,461.8,475.5z"/>
	<path id="XMLID_1309_" class="st1" d="M476.4,472.9H25.5C11.4,472.9,0,461.4,0,447.4V183.5C0,169.4,11.4,158,25.5,158h450.9
		c14.1,0,25.5,11.4,25.5,25.5v263.9C501.9,461.4,490.4,472.9,476.4,472.9z"/>
	<path id="XMLID_655_" class="st2" d="M159.3,316.8c0-24.6-13.4-46.2-33.3-57.8c-4.3-14.5-17.7-25.1-33.6-25.1
		c-15.9,0-29.3,10.6-33.6,25.1c-19.9,11.6-33.3,33.2-33.3,57.8c0,24.6,13.4,46.2,33.3,57.8c4.3,14.5,17.7,25.1,33.6,25.1
		c15.9,0,29.3-10.6,33.6-25.1C145.9,363,159.3,341.4,159.3,316.8z"/>
	<circle id="XMLID_2207_" class="st0" cx="92.4" cy="316.8" r="53.5"/>
	<path id="XMLID_2205_" class="st3" d="M92.4,386.3L92.4,386.3c-12,0-21.7-9.7-21.7-21.7v-95.7c0-12,9.7-21.7,21.7-21.7l0,0
		c12,0,21.7,9.7,21.7,21.7v95.7C114.1,376.6,104.4,386.3,92.4,386.3z"/>
	<g id="XMLID_1036_">
		<g id="XMLID_2070_">
			<path id="XMLID_658_" class="st0" d="M31.2,197.1h-0.1c-4.3,0-7.7-3.5-7.7-7.7s3.5-7.7,7.7-7.7h0.1c4.3,0,7.7,3.5,7.7,7.7
				S35.5,197.1,31.2,197.1z"/>
		</g>
		<g id="XMLID_2684_">
			<path id="XMLID_659_" class="st0" d="M163.8,197.1h-0.1c-4.3,0-7.7-3.5-7.7-7.7s3.5-7.7,7.7-7.7h0.1c4.3,0,7.7,3.5,7.7,7.7
				S168,197.1,163.8,197.1z"/>
		</g>
	</g>
	<g id="XMLID_1033_">
		<path id="XMLID_657_" class="st0" d="M31.2,451.5C31.2,451.5,31.2,451.5,31.2,451.5l-0.1,0c-4.3,0-7.7-3.5-7.7-7.8
			c0-4.3,3.5-7.7,7.7-7.7c0,0,0,0,0,0h0.1c4.3,0,7.7,3.5,7.7,7.8C38.9,448.1,35.5,451.5,31.2,451.5z"/>
	</g>
	<g id="XMLID_1028_">
		<path id="XMLID_660_" class="st0" d="M466,451.5C466,451.5,466,451.5,466,451.5l-0.1,0c-4.3,0-7.7-3.5-7.7-7.8
			c0-4.3,3.5-7.7,7.7-7.7c0,0,0,0,0,0h0.1c4.3,0,7.7,3.5,7.7,7.8C473.7,448.1,470.3,451.5,466,451.5z"/>
	</g>
	<path id="XMLID_656_" class="st4" d="M512,171.8v211.3c0,15.5-12.6,28.1-28.1,28.1h-93.9c-40.7,0-78.5-12.3-109.9-33.4
		c-52.8-35.4-87.5-95.7-87.5-164.1v-41.9c0-15.5,12.6-28.1,28.1-28.1h263.3C499.4,143.7,512,156.3,512,171.8z"/>
	<path id="XMLID_661_" class="st5" d="M512,171.8v211.3c0,15.5-12.6,28.1-28.1,28.1h-33.3c15.5,0,28.1-12.6,28.1-28.1V171.8
		c0-15.5-12.6-28.1-28.1-28.1h33.3C499.4,143.7,512,156.3,512,171.8z"/>
	<rect id="XMLID_2555_" x="323.7" y="145.4" class="st0" width="49.8" height="46.3"/>
	<path id="XMLID_2526_" class="st5" d="M399.7,375.1H297.5V191.8c0-5.7,4.6-10.3,10.3-10.3h81.6c5.7,0,10.3,4.6,10.3,10.3V375.1z"/>
	<path id="XMLID_2677_" class="st6" d="M399.7,375.1h-26.2V181.5h15.9c5.7,0,10.3,4.6,10.3,10.3V375.1z"/>
	<path id="XMLID_662_" class="st0" d="M417,374.7v36.5h-27c-40.7,0-78.5-12.3-109.9-33.4v-3.1c0-5.4,4.4-9.8,9.8-9.8h117.3
		C412.6,364.8,417,369.2,417,374.7z"/>
	<path id="XMLID_1642_" class="st4" d="M462,26.5v85.9h-63.7V26.5c0-10.3,8.3-18.6,18.6-18.6h26.4C453.6,7.8,462,16.2,462,26.5z"/>
	<path id="XMLID_664_" class="st5" d="M462,26.5v85.9h-24.8V26.5c0-10.3-8.3-18.6-18.6-18.6h24.8C453.6,7.8,462,16.2,462,26.5z"/>
	<path id="XMLID_665_" class="st3" d="M512,122.1v13.5c0,5.4-4.4,9.8-9.8,9.8H208.3c-5.4,0-9.8-4.4-9.8-9.8v-13.5
		c0-12.2,9.9-22.1,22.1-22.1h269.3C502.1,100,512,109.9,512,122.1z"/>
	<path id="XMLID_666_" class="st7" d="M512,122.1v13.5c0,5.4-4.4,9.8-9.8,9.8h-25.4c5.4,0,9.8-4.4,9.8-9.8v-13.5
		c0-12.2-9.9-22.1-22.1-22.1h25.4C502.1,100,512,109.9,512,122.1z"/>
</g>
</svg>
