<?xml version="1.0" encoding="utf-8"?>
<!-- Generator: Adobe Illustrator 24.0.3, SVG Export Plug-In . SVG Version: 6.00 Build 0)  -->
<svg version="1.1" id="Capa_1" xmlns="http://www.w3.org/2000/svg" xmlns:xlink="http://www.w3.org/1999/xlink" x="0px" y="0px"
	 viewBox="0 0 512 512" style="enable-background:new 0 0 512 512;" xml:space="preserve">
<style type="text/css">
	.st0{fill:#F5F8F9;}
	.st1{fill:#818689;}
	.st2{fill:#A2A7AA;}
	.st3{fill:#E8EDF2;}
	.st4{fill:#3D3E3F;}
	.st5{fill:#FED402;}
	.st6{fill:#00F2A6;}
	.st7{fill:#D9E7EC;}
	.st8{fill:#FEA613;}
	.st9{fill:#FE9901;}
	.st10{fill:#FE646F;}
	.st11{fill:#FD4755;}
	.st12{fill:#05E39C;}
	.st13{fill:#6BD9E7;}
	.st14{fill:#2ED1E2;}
	.st15{fill:#C5D3DD;}
	.st16{fill:#FFFFFF;}
	.st17{fill:#EEF5F6;}
	.st18{fill:#FAC600;}
	.st19{fill:#99E6FC;}
	.st20{fill:#B6C4CF;}
</style>
<g>
	<g>
		<path class="st0" d="M380.8,504.5H75.2c-16.6,0-30-13.4-30-30v-437c0-16.6,13.4-30,30-30h305.6c16.6,0,30,13.4,30,30v437
			C410.8,491.1,397.4,504.5,380.8,504.5z"/>
	</g>
	<g>
		<path class="st1" d="M145.8,7.5l9.5,22.6c2.3,5.6,7.8,9.2,13.8,9.2h117.7c6,0,11.5-3.6,13.8-9.2l9.5-22.6L145.8,7.5z"/>
	</g>
	<g>
		<path class="st2" d="M197.9,30.1l-9.5-22.6h-42.5l9.5,22.6c2.3,5.6,7.8,9.2,13.8,9.2h42.5C205.7,39.3,200.2,35.7,197.9,30.1z"/>
	</g>
	<path class="st3" d="M104.8,474.5V453H103c-2.8,0-5-2.2-5-5v-30.5c0-2.8,2.2-5,5-5h1.7v-54.8c-1-0.9-1.7-2.2-1.7-3.7v-28.9H78
		c-2.8,0-5-2.2-5-5V147.9c0-2.8,2.2-5,5-5h25V114c0-1.5,0.7-2.8,1.7-3.7V37.5c0-16.6,13.4-30,30-30H75.2c-16.6,0-30,13.4-30,30v437
		c0,16.6,13.4,30,30,30h59.5C118.2,504.5,104.8,491.1,104.8,474.5z"/>
	<g>
		<path class="st4" d="M380.8,512H75.2c-20.7,0-37.5-16.8-37.5-37.5v-437C37.7,16.8,54.5,0,75.2,0h305.6c20.7,0,37.5,16.8,37.5,37.5
			v437C418.3,495.2,401.5,512,380.8,512z M75.2,15c-12.4,0-22.5,10.1-22.5,22.5v437c0,12.4,10.1,22.5,22.5,22.5h305.6
			c12.4,0,22.5-10.1,22.5-22.5v-437c0-12.4-10.1-22.5-22.5-22.5H75.2z"/>
	</g>
	<g>
		<path class="st5" d="M104,142.9H78c-2.8,0-5,2.2-5,5v172.2c0,2.8,2.2,5,5,5h26V142.9z"/>
		<path class="st6" d="M378,142.9h-26v182.2h26c2.8,0,5-2.2,5-5V147.9C383,145.1,380.8,142.9,378,142.9L378,142.9z"/>
	</g>
	<g>
		<path class="st3" d="M441.3,148h28c0.9,0,1.6,0.3,2.3,0.7V99.3c0-9-7.3-16.3-16.3-16.3S439,90.3,439,99.3v49.4
			C439.6,148.3,440.4,148,441.3,148z"/>
		<path class="st3" d="M469.3,192h-28c-0.9,0-1.6-0.3-2.3-0.7v219c0,2.8,0.4,5.6,1.2,8.3l12.2,42.4c0.8,2.9,4.9,2.9,5.8,0l12.2-42.4
			c0.8-2.7,1.2-5.5,1.2-8.3v-219C470.9,191.7,470.1,192,469.3,192L469.3,192z"/>
	</g>
	<g>
		<path class="st7" d="M455.8,410.3V192h-14.5c-0.9,0-1.6-0.3-2.3-0.7v219c0,2.8,0.4,5.6,1.2,8.3l12.2,42.4c0.8,2.9,4.9,2.9,5.8,0
			l5.5-19.1l-6.7-23.4C456.1,415.9,455.8,413.1,455.8,410.3L455.8,410.3z"/>
		<path class="st7" d="M441.3,148h14.5V99.3c0-5.9,3.2-11.1,7.9-13.9c-2.5-1.5-5.3-2.3-8.4-2.3c-9,0-16.3,7.3-16.3,16.3v49.4
			C439.6,148.3,440.4,148,441.3,148z"/>
	</g>
	<g>
		<g>
			<path class="st8" d="M133.5,453H103c-2.8,0-5-2.2-5-5v-30.5c0-2.8,2.2-5,5-5h30.5c2.8,0,5,2.2,5,5V448
				C138.5,450.8,136.3,453,133.5,453z"/>
		</g>
		<g>
			<path class="st9" d="M114.8,448v-30.5c0-2.8,2.2-5,5-5H103c-2.8,0-5,2.2-5,5V448c0,2.8,2.2,5,5,5h16.7
				C117,453,114.8,450.8,114.8,448z"/>
		</g>
		<g>
			<path class="st10" d="M206.7,453h-30.5c-2.8,0-5-2.2-5-5v-30.5c0-2.8,2.2-5,5-5h30.5c2.8,0,5,2.2,5,5V448
				C211.7,450.8,209.5,453,206.7,453z"/>
		</g>
		<g>
			<path class="st11" d="M187.9,448v-30.5c0-2.8,2.2-5,5-5h-16.7c-2.8,0-5,2.2-5,5V448c0,2.8,2.2,5,5,5h16.7
				C190.2,453,187.9,450.8,187.9,448z"/>
		</g>
		<g>
			<path class="st6" d="M279.9,453h-30.5c-2.8,0-5-2.2-5-5v-30.5c0-2.8,2.2-5,5-5h30.5c2.8,0,5,2.2,5,5V448
				C284.9,450.8,282.6,453,279.9,453z"/>
		</g>
		<g>
			<path class="st12" d="M261.1,448v-30.5c0-2.8,2.2-5,5-5h-16.7c-2.8,0-5,2.2-5,5V448c0,2.8,2.2,5,5,5h16.7
				C263.3,453,261.1,450.8,261.1,448z"/>
		</g>
		<g>
			<path class="st13" d="M353,453h-30.5c-2.8,0-5-2.2-5-5v-30.5c0-2.8,2.2-5,5-5H353c2.8,0,5,2.2,5,5V448
				C358,450.8,355.8,453,353,453z"/>
		</g>
		<g>
			<path class="st14" d="M334.3,448v-30.5c0-2.8,2.2-5,5-5h-16.7c-2.8,0-5,2.2-5,5V448c0,2.8,2.2,5,5,5h16.7
				C336.5,453,334.3,450.8,334.3,448z"/>
		</g>
	</g>
	<g>
		<path class="st7" d="M436.3,152v36c0,2.8,2.2,5,5,5h28c2.8,0,5-2.2,5-5v-36c0-2.8-2.2-5-5-5h-28C438.5,147,436.3,149.2,436.3,152z
			"/>
	</g>
	<g>
		<path class="st15" d="M455.8,188v-36c0-2.8,2.2-5,5-5h-19.5c-2.8,0-5,2.2-5,5v36c0,2.8,2.2,5,5,5h19.5
			C458,193,455.8,190.8,455.8,188z"/>
	</g>
	<g>
		<g>
			<path class="st13" d="M103.7,301.4c9.1-6.8,20-10.5,31.4-10.5c3,0,6,0.3,9.1,0.8l1.3,0.2l-0.2-1.3c-0.3-2.4-0.4-4.7-0.4-6.9
				c0-32.1,26.1-58.2,58.2-58.2s58.2,26.1,58.2,58.2c0,0.2,0,0.3,0,0.5l0,0.4l0,2.2l1.7-1.4c9.4-7.8,21.4-12.1,33.6-12.1
				c6.5,0,12.8,1.2,18.8,3.5l1.6,0.6l-0.2-1.7c-0.3-2.6-0.5-5.1-0.5-7.6c0-23.9,14.2-45,36.4-53.9l0.4,0.7V114c0-2.8-2.2-5-5-5H108
				c-2.8,0-5,2.2-5,5v188.1L103.7,301.4z"/>
		</g>
		<g>
			<path class="st14" d="M103.7,301.4c9.1-6.8,20-10.5,31.4-10.5c2.8,0,5.7,0.2,8.6,0.7V114c0-2.8,2.2-5,5-5H108c-2.8,0-5,2.2-5,5
				v188.1L103.7,301.4z"/>
		</g>
		<g>
			<path class="st16" d="M353,213c-22.1,8.6-37.8,30-37.8,55.2c0,2.6,0.2,5.2,0.5,7.7c-6-2.3-12.4-3.5-19.2-3.5
				c-13,0-25,4.6-34.3,12.3c0-0.3,0-0.6,0-0.9c0-32.7-26.5-59.2-59.2-59.2S144,251.1,144,283.7c0,2.4,0.2,4.7,0.4,7
				c-3-0.5-6.1-0.8-9.3-0.8c-12.1,0-23.2,4-32.1,10.7V354c0,2.8,2.2,5,5,5h240c2.8,0,5-2.2,5-5L353,213L353,213z"/>
		</g>
		<g>
			<path class="st17" d="M143.8,354v-63.3c-2.8-0.5-5.7-0.7-8.6-0.7c-12.1,0-23.2,4-32.1,10.7V354c0,2.8,2.2,5,5,5h40.7
				C146,359,143.8,356.8,143.8,354z"/>
		</g>
		<g>
			<ellipse class="st5" cx="187.9" cy="168" rx="24.5" ry="24.5"/>
		</g>
		<g>
			<path class="st18" d="M186.7,168.1c0-9.3,5.2-17.4,12.9-21.6c-3.5-1.9-7.4-2.9-11.6-2.9c-13.5,0-24.5,11-24.5,24.5
				c0,13.5,11,24.5,24.5,24.5c4.2,0,8.2-1.1,11.6-2.9C191.9,185.6,186.7,177.5,186.7,168.1L186.7,168.1z"/>
		</g>
		<g>
			<path class="st19" d="M265.3,155.9h-26.9c-4.1,0-7.5-3.4-7.5-7.5s3.4-7.5,7.5-7.5h26.9c4.1,0,7.5,3.4,7.5,7.5
				S269.5,155.9,265.3,155.9z"/>
		</g>
		<g>
			<path class="st19" d="M310.5,194.4h-51.9c-4.1,0-7.5-3.4-7.5-7.5s3.4-7.5,7.5-7.5h51.9c4.1,0,7.5,3.4,7.5,7.5
				S314.7,194.4,310.5,194.4z"/>
		</g>
		<g>
			<path class="st19" d="M317.3,148.2H300c-4.1,0-7.5-3.4-7.5-7.5s3.4-7.5,7.5-7.5h17.3c4.1,0,7.5,3.4,7.5,7.5
				S321.4,148.2,317.3,148.2z"/>
		</g>
		<g>
			<path class="st19" d="M145.1,204h-13.5c-4.1,0-7.5-3.4-7.5-7.5s3.4-7.5,7.5-7.5h13.5c4.1,0,7.5,3.4,7.5,7.5S149.3,204,145.1,204z
				"/>
		</g>
	</g>
	<g>
		<circle class="st20" cx="332.7" cy="39.3" r="7.5"/>
		<circle class="st20" cx="358" cy="39.3" r="7.5"/>
		<circle class="st20" cx="123.3" cy="39.3" r="7.5"/>
		<circle class="st20" cx="98" cy="39.3" r="7.5"/>
	</g>
</g>
</svg>
