<?xml version="1.0" encoding="utf-8"?>
<!-- Generator: Adobe Illustrator 24.0.3, SVG Export Plug-In . SVG Version: 6.00 Build 0)  -->
<svg version="1.1" id="Capa_1" xmlns="http://www.w3.org/2000/svg" xmlns:xlink="http://www.w3.org/1999/xlink" x="0px" y="0px"
	 viewBox="0 0 512 512" style="enable-background:new 0 0 512 512;" xml:space="preserve">
<style type="text/css">
	.st0{fill:#606C7C;}
	.st1{fill:#E6E6E6;}
	.st2{fill:#CCCCCC;}
	.st3{fill:#A5E4F2;}
	.st4{fill:#7DDBF4;}
	.st5{fill:#51C6E5;}
	.st6{fill:#34B3D1;}
	.st7{fill:#4E5B68;}
	.st8{fill:#CDF3F9;}
	.st9{fill:#5FBBE0;}
	.st10{fill:#F7AB31;}
	.st11{fill:#B7B7B7;}
</style>
<g>
	<path class="st0" d="M104.5,498.1c0,7.7,6.2,13.9,13.9,13.9c7.7,0,13.9-6.2,13.9-13.9c0-3.7,0-14.3,0-18h-27.8
		C104.5,484,104.5,494.1,104.5,498.1z"/>
	<path class="st0" d="M379.7,480.1v4.1v9.8v4.1c0,7.7,6.2,13.9,13.9,13.9c7.7,0,13.9-6.2,13.9-13.9V494c0-1.1,0-10.4,0-13.9H379.7z"
		/>
</g>
<path class="st1" d="M405.5,0H107C89.8,0,75.7,14.1,75.7,31.2V52c0,18.7,0,436.9,0,419.8c0,6.8,5.6,12.4,12.4,12.4h335.9
	c6.8,0,12.4-5.6,12.4-12.4c0-23.3,0-395.8,0-418.6V30.9C436.3,13.9,422.4,0,405.5,0z"/>
<path class="st2" d="M104,471.8c0-23.3,0-397,0-419.8V31.2C104,14.1,118.1,0,135.2,0H107C89.8,0,75.7,14.1,75.7,31.2V52
	c0,22.8,0,396.5,0,419.8c0,6.8,5.6,12.4,12.4,12.4h28.3C109.6,484.2,104,478.6,104,471.8z"/>
<circle class="st3" cx="256" cy="282.4" r="102.7"/>
<path class="st4" d="M215.2,306c-23.6-40.8-15.9-91,15.4-123.1c-8.9,2.3-17.6,5.8-26,10.6c-49.1,28.4-66,91.2-37.6,140.3
	s91.2,66,140.3,37.6c8.3-4.8,15.8-10.6,22.2-17.2C286.1,365.3,238.8,346.8,215.2,306z"/>
<path class="st5" d="M75.7,455.4c0,4.3,0,12.3,0,16.5c0,6.8,5.6,12.4,12.4,12.4h335.9c6.8,0,12.4-5.6,12.4-12.4c0-4.1,0-12.2,0-16.5
	H75.7z"/>
<path class="st6" d="M116.4,484.2c-6.8,0-12.4-5.6-12.4-12.4c0-4.1,0-12.2,0-16.5H75.7v7.2c0.7,5.6-2.4,14.2,5.5,19.5
	c1.3,0.9,2.4,1.3,3.5,1.6C85.8,484,87.1,484,116.4,484.2z"/>
<rect x="75.7" y="87.9" class="st0" width="360.6" height="28.8"/>
<g>
	<rect x="75.7" y="87.9" class="st7" width="28.3" height="28.8"/>
	<rect x="184.8" y="87.9" class="st7" width="136.2" height="28.8"/>
</g>
<path class="st0" d="M358.3,322.6c-2.5,0-4.9-0.8-6.8-2.1c-15.2,37.9-52.3,64.8-95.5,64.8c-56.7,0-102.8-46.1-102.8-102.8
	c0-56.7,46.1-102.8,102.8-102.8c43.3,0,80.4,26.9,95.5,64.8c2-1.3,4.3-2.1,6.8-2.1h22c-17-52.5-66.3-90.5-124.3-90.5
	c-72,0-130.6,58.6-130.6,130.6S184,413.1,256,413.1c58,0,107.4-38.1,124.3-90.5L358.3,322.6L358.3,322.6z"/>
<path class="st7" d="M279.8,399.2c-72,0-130.6-58.6-130.6-130.6c0-43.1,21-81.4,53.3-105.2c-45.4,20.5-77.1,66.2-77.1,119.2
	c0,72,58.6,130.6,130.6,130.6c28.9,0,55.7-9.5,77.4-25.5C317,395.1,298.9,399.2,279.8,399.2z"/>
<path class="st8" d="M314.7,250.1c-2.5,0-4.9-1.2-6.4-3.4c-11.8-17.3-31.4-27.6-52.3-27.6c-4.3,0-7.7-3.5-7.7-7.7s3.5-7.7,7.7-7.7
	c26,0,50.3,12.8,65,34.3c2.4,3.5,1.5,8.3-2,10.7C317.7,249.7,316.2,250.1,314.7,250.1z"/>
<path class="st9" d="M256,385.3c43.3,0,80.4-26.9,95.5-64.8c0.3,0.2,0.5,0.3,0.8,0.5c-3.8-2.1-6.4-6.2-6.4-10.8v-18.7
	c-22.4,0.1-22.4,20.6-44.9,20.6c-22.5,0-22.5-20.6-45.1-20.6c-22.5,0-22.5,20.6-45.1,20.6s-22.5-20.6-45.1-20.6c-4.9,0-8.8,1-12,2.5
	C159.6,345.3,203.2,385.3,256,385.3z"/>
<path class="st5" d="M256,385.3c43.3,0,80.4-26.9,95.5-64.8c0.3,0.2,0.5,0.3,0.8,0.5c-3.8-2.1-6.4-6.2-6.4-10.8v-18.7
	c-22.4,0.1-22.4,20.6-44.9,20.6c-22.5,0-22.5-20.6-45.1-20.6c-22.5,0-22.5,20.6-45.1,20.6s-22.5-20.6-45.1-20.6c-4.9,0-8.8,1-12,2.5
	C159.6,345.3,203.2,385.3,256,385.3z"/>
<path class="st6" d="M218.5,311.2c-2.2,0.6-4.7,0.9-7.6,0.9c-22.5,0-22.5-20.6-45.1-20.6c-4.9,0-8.7,1-11.9,2.5
	c1.5,13.6,5.8,27.1,13.1,39.7c28.4,49.1,91.2,66,140.3,37.6c8.3-4.8,15.8-10.6,22.2-17.2C288,364.8,243,348.3,218.5,311.2z"/>
<path class="st10" d="M393.6,159.6h-32.5c-4.3,0-7.7-3.5-7.7-7.7s3.5-7.7,7.7-7.7h32.5c4.3,0,7.7,3.5,7.7,7.7
	S397.9,159.6,393.6,159.6z"/>
<circle class="st2" cx="125.4" cy="43.8" r="14.4"/>
<path class="st11" d="M125.4,43.8c-2.7-4.6-2.5-10.1,0-14.4c-2.5,0-4.9,0.6-7.2,1.9c-6.9,4-9.3,12.8-5.3,19.7
	c4,6.9,12.8,9.3,19.7,5.3c2.3-1.3,4-3.2,5.3-5.3C132.9,51,128,48.4,125.4,43.8z"/>
<path class="st2" d="M436.3,36.1H280c-4.3,0-7.7,3.5-7.7,7.7s3.5,7.7,7.7,7.7h156.4L436.3,36.1L436.3,36.1z"/>
<path id="SVGCleanerId_0" class="st2" d="M384.4,322.6h-26.1c-6.8,0-12.4-5.6-12.4-12.4v-55.5c0-6.8,5.6-12.4,12.4-12.4h26.1
	c6.8,0,12.4,5.6,12.4,12.4v55.5C396.8,317,391.2,322.6,384.4,322.6z"/>
<g>
	<path id="SVGCleanerId_0_1_" class="st2" d="M384.4,322.6h-26.1c-6.8,0-12.4-5.6-12.4-12.4v-55.5c0-6.8,5.6-12.4,12.4-12.4h26.1
		c6.8,0,12.4,5.6,12.4,12.4v55.5C396.8,317,391.2,322.6,384.4,322.6z"/>
</g>
<path class="st11" d="M384.4,287.6h-26.1c-6.8,0-12.4-5.6-12.4-12.4v35c0,6.8,5.6,12.4,12.4,12.4h26.1c6.8,0,12.4-5.6,12.4-12.4v-35
	C396.8,282.1,391.2,287.6,384.4,287.6z"/>
<g>
	<path class="st1" d="M371.4,277.3c-4.3,0-7.7-3.5-7.7-7.7s3.5-7.7,7.7-7.7h0c4.3,0,7.7,3.5,7.7,7.7S375.7,277.3,371.4,277.3z"/>
	<path class="st1" d="M371.4,303.1c-4.3,0-7.7-3.5-7.7-7.7c0-4.3,3.5-7.7,7.7-7.7h0c4.3,0,7.7,3.5,7.7,7.7
		C379.1,299.6,375.7,303.1,371.4,303.1z"/>
</g>
<circle class="st2" cx="180.6" cy="43.8" r="14.4"/>
<path class="st11" d="M180.6,43.8c-2.7-4.6-2.5-10.1,0-14.4c-2.5,0-4.9,0.6-7.2,1.9c-6.9,4-9.3,12.8-5.3,19.7
	c4,6.9,12.8,9.3,19.7,5.3c2.3-1.3,4-3.2,5.3-5.3C188.1,51,183.2,48.4,180.6,43.8z"/>
<circle class="st2" cx="235.7" cy="43.8" r="14.4"/>
<path class="st11" d="M235.7,43.8c-2.7-4.6-2.5-10.1,0-14.4c-2.5,0-4.9,0.6-7.2,1.9c-6.9,4-9.3,12.8-5.3,19.7
	c4,6.9,12.8,9.3,19.7,5.3c2.3-1.3,4-3.2,5.3-5.3C243.2,51,238.4,48.4,235.7,43.8z"/>
</svg>
